<?xml version="1.0" standalone="no"?>
<!DOCTYPE svg PUBLIC "-//W3C//DTD SVG 20010904//EN"
 "http://www.w3.org/TR/2001/REC-SVG-20010904/DTD/svg10.dtd">
<svg version="1.0" xmlns="http://www.w3.org/2000/svg"
 width="640.000000pt" height="480.000000pt" viewBox="0 0 640.000000 480.000000"
 preserveAspectRatio="xMidYMid meet">

<g transform="translate(0.000000,480.000000) scale(0.100000,-0.100000)"
fill="#000000" stroke="none">
<path d="M64 4770 c-1 -17 3 -30 7 -30 5 0 9 14 9 30 0 39 -15 39 -16 0z"/>
<path d="M174 4791 c4 -6 12 -9 17 -6 5 4 9 0 9 -8 0 -19 27 -30 33 -14 3 9 8
8 21 -2 17 -14 17 -15 -3 -23 -12 -4 -28 -5 -36 -2 -18 7 -20 -17 -3 -34 9 -9
9 -12 1 -12 -7 0 -14 4 -17 9 -3 5 -15 11 -26 14 -11 3 -18 2 -16 -2 3 -4 -31
-5 -75 -3 -54 3 -79 1 -79 -7 0 -6 17 -11 38 -11 31 0 41 -5 54 -28 23 -38 68
-86 68 -71 0 8 12 10 36 6 44 -7 53 -15 34 -27 -13 -8 -13 -10 1 -10 25 0 31
28 9 40 -10 5 -25 10 -33 10 -15 0 -47 41 -47 60 0 16 27 12 34 -6 3 -9 12
-14 20 -11 8 3 23 -1 34 -9 21 -15 56 -9 46 8 -3 5 -12 7 -19 4 -19 -7 -26 4
-14 25 8 15 6 19 -8 19 -12 0 -14 3 -7 10 8 8 20 6 41 -6 19 -11 36 -15 49
-10 13 6 15 10 6 13 -9 4 -10 8 -2 18 9 11 7 12 -9 8 -16 -4 -21 -1 -21 13 0
28 16 48 30 39 9 -5 11 -4 6 3 -4 7 -31 12 -62 12 -40 0 -53 -3 -48 -12 5 -8
2 -9 -12 -4 -40 17 -57 19 -50 7z m126 -71 c0 -5 -4 -10 -10 -10 -5 0 -10 5
-10 10 0 6 5 10 10 10 6 0 10 -4 10 -10z m-163 -46 c-3 -3 -12 -4 -19 -1 -8 3
-5 6 6 6 11 1 17 -2 13 -5z m16 -44 c3 -11 1 -20 -4 -20 -5 0 -9 2 -9 4 0 2
-3 11 -6 20 -3 9 -2 16 4 16 5 0 12 -9 15 -20z"/>
<path d="M428 4780 c27 -26 28 -33 2 -25 -16 5 -20 2 -21 -17 -1 -13 -1 -29 0
-35 1 -8 -11 -13 -34 -13 -19 0 -35 -4 -35 -9 0 -17 21 -23 36 -10 19 15 34
-2 34 -38 0 -28 -1 -28 -42 -3 -18 11 -37 20 -43 20 -5 0 -2 -5 8 -11 9 -5 17
-16 17 -24 0 -8 14 -21 30 -30 35 -18 36 -22 11 -52 -20 -24 -46 -30 -56 -13
-9 14 -42 12 -48 -2 -4 -10 -7 -10 -18 0 -18 17 -34 15 -19 -3 8 -10 9 -15 2
-15 -6 0 -16 8 -21 18 -6 10 -11 12 -11 4 0 -10 -5 -10 -20 -2 -16 8 -20 8
-20 -4 0 -14 42 -31 71 -27 9 1 22 -5 29 -14 8 -10 9 -15 1 -15 -6 0 -11 -4
-11 -10 0 -5 10 -10 23 -10 36 0 56 -21 63 -67 l7 -43 -34 3 c-19 2 -33 8 -32
14 3 14 -24 25 -32 13 -3 -4 1 -15 9 -23 12 -11 12 -19 3 -38 -12 -22 -41 -34
-265 -104 -7 -3 -12 -22 -12 -51 0 -39 3 -45 17 -40 58 23 345 107 349 103 3
-3 14 -53 25 -113 18 -103 18 -110 2 -162 l-17 -54 48 -43 48 -43 -12 -124
c-7 -68 -14 -159 -17 -203 -3 -44 -9 -83 -15 -86 -14 -9 -168 -1 -237 11 -68
12 -74 12 -66 0 3 -5 0 -10 -8 -10 -13 0 -72 55 -102 95 -13 18 -14 -5 -15
-207 0 -146 4 -228 10 -228 6 0 10 -11 10 -25 0 -14 -4 -25 -9 -25 -6 0 -3
-12 5 -27 12 -25 12 -29 -1 -39 -10 -7 -15 -29 -15 -63 l0 -51 39 0 c41 0 70
-19 72 -48 1 -9 3 -24 4 -32 1 -8 3 -23 4 -32 0 -11 9 -18 20 -18 11 0 22 -4
25 -9 3 -5 26 -6 51 -3 37 4 45 2 45 -12 0 -22 20 -21 20 2 1 16 1 16 14 0 21
-29 28 -21 24 27 -2 25 -2 45 -1 45 1 0 9 -7 18 -16 11 -12 13 -20 5 -29 -7
-8 -7 -16 -2 -19 12 -7 25 22 16 35 -3 5 0 9 5 9 6 0 11 -3 12 -7 2 -25 10
-58 15 -62 3 -3 5 3 4 14 -5 41 0 66 11 59 6 -3 8 -17 5 -30 -4 -16 -2 -24 6
-24 7 -1 81 -3 163 -6 83 -3 174 -10 204 -16 30 -5 96 -16 145 -22 50 -7 145
-29 211 -50 113 -35 315 -76 374 -76 32 0 125 -56 116 -70 -3 -6 -23 -11 -43
-11 -30 -1 -25 -3 23 -11 57 -9 85 -22 85 -38 0 -16 -185 -47 -360 -61 -152
-11 -179 -11 -255 2 -89 15 -182 12 -222 -9 -12 -6 -47 -3 -108 9 -49 10 -99
16 -109 13 -33 -11 -105 -10 -103 1 1 5 -17 10 -41 11 -33 1 -47 -4 -60 -21
-19 -24 -50 -45 -38 -27 10 16 -16 15 -33 0 -10 -9 -12 -9 -7 -1 3 6 2 14 -3
17 -6 4 -6 19 0 39 11 39 11 37 -2 37 -13 0 -89 61 -89 72 0 4 12 9 28 9 15 1
2 5 -28 10 -30 5 -67 6 -82 3 -23 -5 -27 -3 -22 10 5 13 -1 16 -26 16 -17 0
-29 -4 -26 -8 2 -4 1 -14 -4 -22 -6 -10 -12 -11 -22 -3 -7 6 -28 13 -46 15
l-32 5 0 -354 c1 -194 4 -353 7 -353 4 0 15 8 26 18 19 16 19 16 13 -8 -7 -24
-6 -24 8 -6 19 23 21 9 3 -15 -7 -9 -18 -14 -24 -12 -7 3 -13 -1 -13 -9 0 -10
-3 -9 -10 2 -7 10 -10 -66 -9 -231 0 -220 2 -247 18 -260 9 -9 22 -14 29 -11
7 2 12 -2 12 -8 0 -8 -11 -11 -28 -8 l-28 4 -3 -97 c-2 -95 -2 -97 22 -103 31
-7 41 -31 26 -59 -12 -22 -11 -22 9 -4 21 19 22 30 5 62 -5 11 -13 32 -17 47
-6 26 -5 27 33 25 29 -2 37 1 33 11 -5 13 11 8 48 -16 12 -8 -28 -21 -50 -17
-14 3 -19 2 -12 -1 10 -4 10 -9 2 -20 -16 -19 -3 -39 16 -23 12 10 13 8 5 -13
-5 -14 -7 -29 -3 -34 4 -4 3 -5 -3 -2 -5 3 -19 -3 -30 -14 -20 -19 -20 -20 10
-13 30 7 30 7 8 -9 -12 -9 -26 -16 -30 -15 -20 3 -34 -2 -28 -11 3 -5 -1 -20
-9 -32 l-16 -22 0 27 c0 15 -4 27 -10 27 -6 0 -10 -42 -10 -106 0 -67 4 -103
10 -99 7 4 7 -3 0 -20 -6 -16 -10 -163 -10 -361 l0 -334 560 0 c406 0 560 3
560 11 0 8 4 8 13 1 18 -15 785 -16 803 -1 10 8 14 9 14 0 0 -8 586 -11 2225
-11 l2224 0 1 425 0 425 -45 11 c-50 13 -75 34 -28 24 15 -4 38 -8 51 -11 l22
-4 0 875 c-1 690 -3 875 -13 875 -24 0 -77 58 -77 84 0 31 23 35 42 8 7 -10
21 -21 30 -25 16 -6 18 1 16 53 -1 33 -5 60 -10 60 -4 0 -8 9 -8 21 0 11 5 17
10 14 6 -4 10 6 10 24 0 22 -15 48 -56 96 -31 36 -59 64 -62 61 -3 -3 16 -38
42 -77 39 -58 46 -76 41 -100 -4 -16 -11 -31 -16 -34 -14 -9 -70 58 -65 78 3
13 -11 24 -60 47 -35 16 -64 33 -64 39 0 10 26 44 63 83 9 10 17 23 17 28 0
19 16 9 85 -51 38 -34 71 -57 73 -50 2 6 -5 19 -16 29 -24 21 -102 118 -102
126 0 8 103 150 113 154 4 2 7 117 7 255 l0 252 -20 -30 c-20 -31 -28 -62 -9
-35 9 13 10 13 6 0 -2 -8 -10 -14 -16 -12 -6 1 -68 -82 -136 -185 -69 -104
-131 -196 -138 -206 -14 -16 -20 -16 -128 7 -62 14 -115 23 -117 22 -2 -2 40
-26 92 -52 53 -27 96 -52 96 -55 0 -3 -12 -22 -27 -41 -16 -19 -37 -47 -48
-63 -42 -59 -148 -176 -156 -173 -5 2 -26 26 -47 53 -21 28 -43 50 -49 50 -13
0 -42 34 -43 48 0 5 5 5 12 1 7 -4 8 -3 4 4 -4 6 -14 8 -23 5 -12 -5 -15 -2
-10 10 4 11 2 14 -7 11 -8 -3 -22 10 -35 31 -11 20 -25 34 -30 31 -22 -14 -51
145 -34 191 4 11 51 54 103 94 52 40 138 117 192 171 53 54 103 98 111 98 8 0
20 7 27 15 7 8 19 15 26 15 8 0 14 6 14 14 0 18 21 25 91 32 65 6 159 30 214
54 22 9 50 21 62 24 l23 7 0 435 0 434 -423 0 c-355 -1 -425 -3 -441 -15 -11
-8 -28 -15 -37 -15 -10 0 -25 -7 -33 -16 -9 -9 -16 -11 -16 -4 0 6 -5 8 -10 5
-6 -4 -8 -11 -5 -16 4 -5 -2 -9 -12 -9 -11 0 -23 -4 -28 -8 -6 -5 -29 -14 -53
-21 -50 -14 -104 -59 -139 -115 -24 -38 -25 -40 -7 -53 16 -12 16 -13 -8 -13
-25 0 -26 1 -16 40 13 51 75 121 125 142 135 58 163 72 160 82 -2 7 -81 12
-244 14 l-241 2 -12 -36 c-7 -19 -17 -33 -24 -31 -6 2 -37 10 -69 17 -48 11
-56 16 -51 32 5 16 -1 18 -42 18 -30 0 -51 -5 -58 -15 -10 -13 -14 -13 -40 0
-36 19 -35 19 -29 -5 4 -13 0 -20 -9 -20 -8 0 -23 9 -33 20 -18 19 -31 20
-482 20 -400 0 -463 -2 -463 -15 0 -8 6 -12 14 -9 16 6 25 -6 32 -41 4 -21 1
-24 -23 -20 -16 2 -36 6 -46 10 -10 4 -24 1 -33 -6 -23 -19 -51 -21 -58 -4 -9
23 -36 18 -46 -10 -5 -14 -14 -25 -19 -25 -10 0 -21 34 -21 66 0 13 -8 24 -19
27 -12 3 -18 -1 -17 -11 0 -8 -5 -17 -11 -19 -9 -3 -13 6 -13 25 l0 30 -266 1
c-177 1 -263 -2 -259 -9 3 -5 1 -10 -4 -10 -6 0 -11 4 -11 10 0 15 -919 13
-937 -2 -10 -8 -17 -8 -25 0 -7 7 -30 12 -51 12 -31 0 -40 -4 -44 -21 -4 -12
-11 -18 -20 -15 -8 3 -21 6 -29 6 -8 0 -14 5 -14 11 0 6 6 9 13 6 8 -3 20 -1
28 4 9 6 -60 8 -178 7 -106 -2 -193 -6 -193 -10 0 -5 -7 -8 -15 -8 -8 0 -15 5
-15 10 0 7 -7 7 -21 -1 -15 -8 -19 -8 -15 0 5 7 -5 11 -29 11 -30 0 -36 -3
-31 -16 3 -8 0 -21 -7 -28 -15 -15 -50 -29 -42 -17 3 5 -3 12 -12 14 -14 4
-14 5 3 6 18 1 34 18 34 37 0 2 -18 4 -41 4 -27 0 -38 -4 -33 -11 3 -6 0 -15
-7 -20 -16 -10 -35 -12 -26 -2 4 3 2 12 -4 20 -9 10 -46 13 -158 12 -80 -1
-138 -3 -127 -6 14 -4 17 -11 12 -35 -5 -27 -27 -58 -40 -58 -3 0 -6 22 -6 49
l0 49 -212 1 -213 2 23 -21z m895 -5 c4 -8 2 -17 -3 -20 -6 -4 -10 3 -10 14 0
25 6 27 13 6z m112 5 c3 -5 1 -10 -4 -10 -6 0 -11 5 -11 10 0 6 2 10 4 10 3 0
8 -4 11 -10z m782 -9 c0 -11 -5 -18 -9 -15 -4 3 -5 11 -1 19 7 21 12 19 10 -4z
m4058 4 c17 -4 25 -12 25 -25 0 -24 -20 -26 -66 -4 -41 19 -47 47 -9 39 14 -3
36 -7 50 -10z m-4600 -5 c3 -5 1 -10 -4 -10 -6 0 -11 5 -11 10 0 6 2 10 4 10
3 0 8 -4 11 -10z m150 1 c3 -5 1 -12 -5 -16 -5 -3 -10 1 -10 9 0 18 6 21 15 7z
m166 0 c-7 -5 -11 -13 -7 -19 3 -5 -1 -13 -10 -16 -8 -3 -13 -2 -11 2 2 4 7
15 10 25 4 9 12 17 19 17 10 0 10 -2 -1 -9z m1343 0 c3 -5 -3 -11 -14 -14 -20
-5 -26 3 -13 16 9 10 21 9 27 -2z m-2599 -11 c3 -5 1 -10 -4 -10 -6 0 -11 5
-11 10 0 6 2 10 4 10 3 0 8 -4 11 -10z m1353 -18 c-13 -3 -15 -9 -7 -35 13
-45 11 -57 -6 -51 -11 5 -13 2 -9 -10 3 -9 1 -16 -6 -16 -6 0 -8 -4 -5 -10 4
-6 21 0 43 15 33 22 38 24 48 10 9 -12 13 -13 16 -4 6 19 28 1 28 -24 0 -16
-3 -18 -12 -9 -17 17 -25 15 -31 -8 -5 -18 -11 -20 -49 -14 -23 4 -48 11 -54
15 -6 5 -11 3 -11 -5 0 -8 11 -19 24 -25 25 -12 30 -27 11 -34 -8 -3 -6 -6 5
-6 10 -1 17 -9 17 -20 0 -10 7 -22 16 -25 8 -3 12 -2 9 4 -3 5 0 7 8 4 8 -3
18 -1 21 5 8 12 36 3 36 -11 0 -5 -9 -6 -20 -3 -16 5 -20 2 -20 -14 0 -12 5
-21 10 -21 6 0 10 -4 10 -10 0 -16 -83 -1 -113 21 -23 17 -33 19 -58 10 -22
-7 -40 -6 -69 4 -22 8 -47 12 -55 9 -24 -9 -51 4 -37 18 8 8 9 15 1 25 -9 10
-8 13 5 13 9 0 16 7 16 15 0 8 7 15 15 15 9 0 18 -7 21 -15 4 -8 13 -15 21
-15 11 0 14 -7 11 -24 -3 -16 0 -27 10 -31 11 -4 13 1 9 23 -5 27 -4 28 28 26
31 -3 35 -1 33 21 -1 14 -6 25 -10 25 -4 0 -8 7 -8 15 0 8 -11 17 -23 20 -19
5 -24 14 -25 41 -1 24 3 34 13 34 9 0 15 -10 15 -26 0 -20 4 -25 16 -20 9 3
23 6 31 6 10 0 14 6 10 20 -3 13 2 25 16 35 12 8 16 15 10 15 -6 0 -14 7 -17
16 -5 13 -1 15 18 10 14 -3 28 -1 31 4 4 6 12 7 18 3 8 -5 7 -9 -5 -11z m2532
9 c0 -6 -4 -13 -10 -16 -5 -3 -10 1 -10 9 0 9 5 16 10 16 6 0 10 -4 10 -9z
m115 -1 c3 -5 2 -10 -4 -10 -5 0 -13 5 -16 10 -3 6 -2 10 4 10 5 0 13 -4 16
-10z m355 -29 c0 -13 -10 -14 -28 -3 -7 5 -10 16 -6 25 5 14 8 14 20 2 8 -7
14 -18 14 -24z m1017 23 c2 -6 -8 -16 -22 -22 -36 -17 -38 -15 -19 13 16 25
34 29 41 9z m-1444 -24 c4 -16 0 -20 -21 -20 -23 1 -25 2 -11 13 9 7 14 18 11
26 -2 8 0 11 5 8 6 -4 13 -16 16 -27z m1669 15 c0 -5 -5 -11 -11 -13 -6 -2
-11 4 -11 13 0 9 5 15 11 13 6 -2 11 -8 11 -13z m-4692 -4 c0 -5 -7 -11 -15
-15 -9 -3 -15 0 -15 9 0 8 7 15 15 15 8 0 15 -4 15 -9z m40 -12 c0 -6 -4 -7
-10 -4 -5 3 -10 11 -10 16 0 6 5 7 10 4 6 -3 10 -11 10 -16z m3206 -15 c10 -4
25 -29 43 -69 2 -5 -4 -3 -13 5 -16 13 -20 12 -33 -5 -11 -14 -17 -16 -20 -8
-3 9 -10 10 -24 3 -13 -8 -19 -7 -19 0 0 6 7 13 15 16 8 4 15 15 15 26 0 17
-2 18 -15 8 -20 -16 -29 -7 -31 30 l-2 29 37 -15 c20 -9 41 -18 47 -20z
m-3497 5 c11 -18 11 -23 -1 -30 -20 -13 -40 -11 -35 4 2 6 11 11 18 9 11 -3
12 -1 2 9 -7 7 -13 17 -13 21 0 15 15 8 29 -13z m3401 11 c0 -5 -2 -10 -4 -10
-3 0 -8 5 -11 10 -3 6 -1 10 4 10 6 0 11 -4 11 -10z m-3440 -10 c0 -5 -2 -10
-4 -10 -3 0 -8 5 -11 10 -3 6 -1 10 4 10 6 0 11 -4 11 -10z m850 0 c0 -5 -5
-10 -11 -10 -5 0 -7 5 -4 10 3 6 8 10 11 10 2 0 4 -4 4 -10z m1150 0 c0 -5 -2
-10 -4 -10 -3 0 -8 5 -11 10 -3 6 -1 10 4 10 6 0 11 -4 11 -10z m448 -34 c38
-39 41 -45 26 -54 -12 -7 -14 -14 -7 -27 9 -16 11 -16 26 0 18 18 23 9 8 -14
-5 -8 -16 -11 -24 -8 -20 8 -43 -18 -26 -29 8 -4 9 -3 5 4 -4 7 -3 12 3 12 20
0 20 -17 0 -38 -11 -12 -27 -22 -35 -22 -8 0 -12 -5 -9 -10 4 -6 11 -8 16 -5
5 4 9 2 9 -4 0 -5 -4 -13 -10 -16 -5 -3 -10 -15 -10 -26 0 -21 -19 -27 -21 -6
0 6 -6 -8 -13 -33 -6 -25 -9 -47 -5 -50 3 -3 9 -14 13 -25 7 -16 9 -17 13 -5
14 44 15 45 24 23 12 -31 39 -19 39 17 0 34 -19 50 -32 26 -5 -9 -14 -14 -19
-10 -13 7 18 44 37 44 7 0 18 -8 23 -17 6 -10 11 -13 11 -7 0 17 52 4 73 -17
10 -11 24 -19 31 -19 19 0 26 -23 19 -64 -3 -23 -1 -42 8 -52 12 -14 14 -14
26 2 7 10 13 26 13 36 0 23 11 23 38 -2 12 -11 26 -20 32 -20 6 0 8 -5 4 -11
-3 -6 -2 -14 3 -18 37 -26 263 -657 263 -735 0 -55 -21 -108 -52 -134 -17 -14
-36 -32 -44 -40 -8 -7 -14 -10 -14 -6 0 3 -7 1 -15 -6 -8 -7 -12 -16 -9 -21 3
-5 -2 -9 -10 -9 -9 0 -16 -5 -16 -11 0 -6 -9 -22 -20 -36 -13 -17 -17 -30 -11
-42 5 -9 6 -22 4 -28 -3 -7 2 -13 9 -13 16 0 17 -27 4 -48 -4 -7 -5 -16 -2
-19 3 -4 6 -1 6 6 0 7 4 10 9 7 5 -3 23 11 40 32 17 20 30 32 31 25 0 -6 -20
-32 -45 -57 -42 -44 -57 -64 -36 -51 5 3 12 1 16 -5 3 -5 -1 -10 -9 -10 -18 0
-21 -16 -6 -25 20 -12 11 -45 -12 -45 -22 -1 -22 -1 -4 -11 14 -9 20 -8 26 1
11 19 61 -20 56 -43 -2 -10 0 -14 6 -11 6 4 9 1 6 -7 -3 -8 -12 -14 -21 -14
-8 0 -19 -4 -23 -8 -4 -4 -17 -7 -29 -7 -11 0 -26 -5 -32 -11 -7 -7 -43 16
-119 78 -60 48 -111 90 -114 93 -19 22 -170 118 -170 109 0 -20 -28 10 -77 83
-53 79 -66 88 -124 88 -36 0 -41 2 -36 20 3 13 -1 24 -14 30 -10 6 -19 17 -19
25 0 8 -7 15 -15 15 -8 0 -15 -6 -15 -14 0 -8 -3 -22 -7 -32 -4 -11 -3 -15 4
-11 10 6 53 -49 53 -66 0 -3 -26 -6 -58 -5 -51 1 -59 4 -70 26 -6 14 -9 29 -6
34 3 5 -2 15 -12 23 -16 11 -17 16 -6 27 7 7 17 13 22 13 6 0 10 4 9 9 0 5 6
13 15 18 9 5 13 15 9 26 -6 15 -5 16 12 2 11 -9 16 -10 11 -2 -4 6 -6 12 -3
12 12 0 86 -41 89 -50 3 -10 108 -33 116 -25 3 3 -2 5 -11 5 -9 0 -17 5 -17
10 0 6 10 8 23 5 14 -4 28 -1 35 8 10 12 8 16 -9 20 -12 3 -18 10 -14 16 3 6
3 11 -2 12 -22 2 -45 8 -50 13 -8 8 17 36 32 36 7 0 15 7 18 15 5 11 1 12 -18
5 -27 -10 -33 -2 -13 18 21 21 0 25 -41 9 -22 -9 -43 -13 -45 -8 -3 5 6 12 19
15 14 4 23 11 20 16 -4 6 -18 7 -33 4 -21 -5 -24 -4 -16 5 8 9 6 22 -8 49 -10
20 -23 36 -28 35 -6 -2 -10 2 -10 8 0 8 -5 8 -15 -1 -8 -7 -15 -11 -16 -9 0 2
-2 14 -3 27 -2 13 -15 34 -29 48 l-26 24 -15 -27 -15 -28 -1 30 c0 20 -3 26
-9 17 -4 -7 -5 -31 -1 -52 5 -30 4 -37 -7 -33 -7 3 -13 11 -13 18 0 14 -29 75
-36 75 -3 0 -2 -4 1 -10 3 -5 0 -10 -8 -10 -16 0 -37 48 -37 84 -1 20 -1 20
-21 -3 -15 -18 -18 -32 -13 -55 5 -25 4 -29 -7 -18 -7 6 -16 12 -20 12 -11 0
11 -73 27 -91 8 -8 14 -22 14 -30 0 -16 -39 29 -40 46 0 6 -16 25 -36 43 -39
36 -65 93 -45 100 9 3 9 7 0 19 -10 11 -10 19 -1 34 7 10 10 19 8 19 -2 0 -13
3 -23 6 -14 5 -15 4 -3 -4 12 -9 12 -14 -5 -31 -10 -12 -21 -19 -24 -16 -10
11 -11 85 0 85 5 0 7 -6 3 -12 -6 -10 -5 -10 8 -1 8 7 18 10 22 6 4 -4 17 -8
29 -8 13 0 21 -6 19 -13 -2 -10 2 -10 17 -2 14 7 23 6 33 -3 7 -8 19 -12 27
-9 10 3 12 0 8 -11 -6 -15 16 -31 27 -20 10 10 7 25 -4 18 -5 -3 -10 -1 -10 4
0 17 36 13 51 -5 11 -13 14 -13 21 0 6 11 15 13 41 5 17 -5 70 -12 117 -16 79
-6 84 -5 71 10 -8 11 -18 14 -25 9 -6 -5 -20 -8 -31 -7 -11 1 -37 2 -57 3 -28
2 -38 6 -38 18 0 13 -3 14 -14 5 -11 -9 -29 -8 -77 4 -35 9 -71 21 -80 26 -9
5 -32 11 -50 13 -47 6 -63 13 -77 37 -12 18 -11 24 7 43 11 11 20 26 21 31 1
14 40 6 57 -11 8 -8 25 -14 39 -14 13 0 24 -4 24 -9 0 -5 18 -11 40 -13 40 -3
40 -3 19 13 -18 14 -21 23 -17 57 5 32 3 39 -8 35 -10 -3 -12 -13 -8 -27 4
-11 3 -18 -1 -14 -4 4 -10 24 -12 45 -2 21 -9 41 -16 45 -7 5 -3 7 10 5 12 -2
26 -6 29 -10 4 -4 12 -7 18 -7 6 0 5 5 -2 12 -7 7 -12 16 -12 22 0 5 3 6 7 3
3 -4 18 0 32 9 17 12 26 14 29 6 2 -7 8 -12 12 -12 11 0 -25 63 -44 79 -9 8
-19 5 -36 -11 -49 -46 -129 -26 -96 24 13 20 13 26 1 42 -8 10 -29 21 -47 25
-24 5 -37 15 -49 41 -11 22 -18 29 -21 19 -3 -8 -9 -10 -14 -6 -5 5 0 16 11
25 12 10 22 27 23 40 3 44 5 52 13 52 15 0 20 -42 8 -71 -8 -22 -9 -33 -1 -41
17 -17 42 -1 48 31 5 22 10 27 26 24 15 -5 18 -11 13 -34 -6 -24 -4 -28 14
-24 15 3 23 -5 36 -33 9 -21 14 -27 11 -13 -3 13 1 36 9 51 11 21 11 30 2 40
-10 10 -5 11 26 7 23 -4 37 -2 37 5 0 5 6 8 14 5 16 -6 30 19 20 35 -4 7 0 7
12 0 16 -8 19 -6 21 15 0 14 8 32 17 41 14 14 17 14 34 -1 10 -9 21 -14 24
-11 3 3 9 0 14 -7 4 -8 3 -10 -4 -5 -7 4 -12 3 -12 -1 0 -5 8 -13 19 -20 23
-15 35 -53 15 -53 -16 0 -18 -9 -5 -29 7 -11 10 -11 17 0 11 18 13 109 2 103
-4 -3 -8 2 -8 10 0 9 5 16 11 16 7 0 8 11 4 30 -4 16 -3 35 1 42 5 7 8 22 9
32 0 33 25 31 25 -2 0 -17 -5 -32 -10 -34 -6 -2 -1 -9 11 -17 21 -12 22 -12
16 18 -10 48 9 36 22 -13 10 -42 9 -47 -14 -72 -29 -32 -31 -44 -7 -45 9 -1
22 -2 27 -4 6 -1 14 -3 19 -3 5 -1 3 -9 -4 -17 -9 -11 -17 -12 -30 -5 -11 6
-21 6 -24 1 -8 -13 14 -67 22 -56 12 17 39 16 46 -1 7 -18 0 -34 -15 -34 -6 0
-8 4 -4 9 3 5 0 13 -6 17 -6 3 -15 1 -19 -6 -6 -9 -13 -7 -29 9 -11 11 -26 21
-31 21 -13 0 -9 -52 4 -62 6 -4 5 -17 -2 -33 -16 -36 -15 -55 4 -55 10 0 14 6
10 15 -3 8 0 15 7 16 9 0 9 2 0 6 -18 7 -16 20 3 27 8 3 12 2 9 -3 -3 -5 -1
-12 4 -15 11 -7 23 22 15 36 -4 6 -1 9 7 6 8 -3 18 -18 23 -35 8 -28 11 -30
35 -22 29 10 76 72 67 88 -8 13 4 42 15 35 5 -3 9 4 9 15 0 11 -5 23 -10 26
-15 9 7 35 24 29 7 -3 21 4 31 16 10 11 13 20 7 20 -21 0 -13 27 11 35 19 6
19 8 5 12 -20 5 -23 18 -8 28 6 3 10 15 10 25 0 15 -7 18 -37 15 -21 -1 -41 2
-45 8 -6 10 27 47 41 47 3 0 25 -20 49 -44z m-2008 13 c0 -11 -27 -12 -34 0
-3 4 -3 11 0 14 8 8 34 -3 34 -14z m110 11 c0 -5 -2 -10 -4 -10 -3 0 -8 5 -11
10 -3 6 -1 10 4 10 6 0 11 -4 11 -10z m685 0 c3 -5 -1 -10 -10 -10 -9 0 -13 5
-10 10 3 6 8 10 10 10 2 0 7 -4 10 -10z m3770 0 c-3 -5 -11 -10 -16 -10 -6 0
-7 5 -4 10 3 6 11 10 16 10 6 0 7 -4 4 -10z m-5055 -4 c0 -3 -4 -8 -10 -11 -5
-3 -10 -1 -10 4 0 6 5 11 10 11 6 0 10 -2 10 -4z m406 -23 c-10 -10 -19 5 -10
18 6 11 8 11 12 0 2 -7 1 -15 -2 -18z m1004 17 c0 -5 -5 -10 -11 -10 -5 0 -7
5 -4 10 3 6 8 10 11 10 2 0 4 -4 4 -10z m220 0 c0 -5 -2 -10 -4 -10 -3 0 -8 5
-11 10 -3 6 -1 10 4 10 6 0 11 -4 11 -10z m1680 -9 c14 -27 13 -31 -10 -31
-15 0 -20 7 -20 25 0 30 15 33 30 6z m340 10 c0 -14 -18 -23 -31 -15 -8 4 -7
9 2 15 18 11 29 11 29 0z m1224 3 c22 -8 20 -26 -1 -22 -10 1 -24 -1 -32 -6
-8 -5 -16 -3 -22 5 -5 9 -3 16 9 21 23 9 28 9 46 2z m-5329 -14 c3 -5 1 -10
-4 -10 -6 0 -11 5 -11 10 0 6 2 10 4 10 3 0 8 -4 11 -10z m2115 0 c0 -5 -5
-10 -11 -10 -5 0 -7 5 -4 10 3 6 8 10 11 10 2 0 4 -4 4 -10z m3105 0 c-3 -5
-10 -10 -16 -10 -5 0 -9 5 -9 10 0 6 7 10 16 10 8 0 12 -4 9 -10z m-4227 -21
c11 -17 11 -20 0 -13 -7 5 -23 7 -35 5 -22 -2 -30 9 -16 22 13 14 38 7 51 -14z
m2957 11 c3 -5 -3 -10 -14 -10 -12 0 -21 5 -21 10 0 6 6 10 14 10 8 0 18 -4
21 -10z m-2075 -4 c0 -3 -4 -8 -10 -11 -5 -3 -10 -1 -10 4 0 6 5 11 10 11 6 0
10 -2 10 -4z m950 -10 c0 -17 -17 -29 -43 -31 -22 -2 -29 8 -21 29 8 21 64 22
64 2z m1423 -6 c3 -10 -1 -24 -9 -31 -8 -6 -14 -18 -14 -25 0 -8 -2 -14 -4
-14 -2 0 -13 -3 -23 -7 -16 -6 -16 -5 -4 10 12 15 11 17 -4 17 -16 0 -17 2 -3
18 8 9 18 25 21 35 9 23 33 22 40 -3z m1117 10 c0 -5 7 -7 15 -4 12 5 15 -1
13 -26 -2 -29 -18 -56 -18 -31 0 6 -9 11 -19 11 -23 0 -35 28 -20 46 13 16 29
18 29 4z m-2716 -25 c-3 -7 -12 -11 -20 -8 -11 4 -12 9 -3 19 14 17 30 9 23
-11z m2656 10 c-7 -9 -15 -13 -17 -11 -7 7 7 26 19 26 6 0 6 -6 -2 -15z
m-5284 -53 c26 -38 30 -52 14 -52 -5 0 -10 6 -10 13 0 7 -9 18 -20 25 -14 8
-20 22 -19 45 0 17 3 26 6 18 3 -8 16 -30 29 -49z m64 41 c0 -3 -7 -3 -15 0
-11 5 -13 0 -8 -23 3 -17 1 -30 -4 -30 -10 0 -15 48 -7 62 5 7 34 -1 34 -9z
m524 2 c8 -8 23 -15 33 -15 10 0 26 -9 36 -21 17 -19 17 -20 0 -17 -10 2 -21
7 -25 12 -10 14 -47 14 -58 1 -8 -9 -4 -11 15 -7 15 2 25 0 25 -7 0 -6 -4 -11
-10 -11 -15 0 -12 -21 7 -42 14 -16 15 -18 0 -18 -22 0 -32 -19 -18 -33 9 -9
14 -8 21 2 4 8 18 16 30 18 17 2 21 -1 16 -13 -7 -19 1 -54 14 -54 4 0 6 10 2
22 -4 17 -2 20 11 15 11 -4 17 2 22 24 4 16 13 29 21 29 8 0 14 7 14 15 0 25
27 12 59 -28 12 -15 12 -19 -5 -32 -18 -14 -18 -15 4 -21 12 -3 22 -10 22 -15
0 -5 7 -6 16 -2 11 4 15 1 13 -11 -3 -12 -32 -28 -89 -48 -141 -51 -191 -62
-213 -48 -10 6 -22 9 -25 5 -4 -3 0 -10 8 -15 8 -6 13 -10 10 -11 -41 -6 -59
-6 -55 2 4 5 -4 9 -17 8 -13 0 -17 -3 -10 -6 6 -2 12 -9 12 -14 0 -4 -7 -6
-15 -3 -8 4 -15 1 -15 -5 0 -6 -5 -11 -10 -11 -6 0 -8 10 -4 24 3 13 1 27 -5
30 -15 9 -14 36 1 36 6 0 9 -3 5 -6 -10 -10 16 -31 33 -27 9 2 17 16 18 31 1
24 0 25 -9 9 -10 -18 -12 -18 -30 2 -11 12 -17 26 -13 33 4 6 3 8 -3 5 -10 -6
-37 20 -40 38 -1 6 -12 20 -23 33 -22 22 -22 22 -2 22 11 0 22 5 24 11 3 9 10
9 27 -1 23 -12 23 -11 17 14 -5 21 -3 26 13 26 11 0 23 -4 26 -10 13 -21 27
-9 23 20 -3 17 -1 30 4 30 5 0 7 9 3 19 -4 15 0 21 17 24 44 8 57 7 72 -8z
m1136 5 c0 -5 -4 -10 -10 -10 -5 0 -10 5 -10 10 0 6 5 10 10 10 6 0 10 -4 10
-10z m245 0 c3 -5 1 -10 -4 -10 -6 0 -11 -7 -11 -16 0 -19 -31 -15 -38 5 -3 8
0 11 6 7 5 -3 12 1 16 9 6 17 22 20 31 5z m1835 0 c0 -5 -5 -10 -11 -10 -5 0
-7 5 -4 10 3 6 8 10 11 10 2 0 4 -4 4 -10z m1345 0 c3 -5 -3 -10 -15 -10 -12
0 -18 5 -15 10 3 6 10 10 15 10 5 0 12 -4 15 -10z m-3275 -10 c0 -5 -4 -10
-10 -10 -5 0 -10 5 -10 10 0 6 5 10 10 10 6 0 10 -4 10 -10z m3340 2 c0 -4 -5
-13 -10 -18 -7 -7 -4 -10 12 -10 14 1 24 -6 26 -16 4 -22 -14 -23 -35 -2 -11
10 -26 14 -45 10 -40 -8 -37 17 5 31 43 14 47 14 47 5z m200 -7 c-7 -8 -16
-15 -21 -15 -5 0 -6 7 -3 15 4 8 13 15 21 15 13 0 13 -3 3 -15z m-4560 -5 c0
-5 -4 -10 -10 -10 -5 0 -10 5 -10 10 0 6 5 10 10 10 6 0 10 -4 10 -10z m-436
-12 c-5 -8 -2 -9 10 -5 13 5 17 2 14 -10 -4 -23 -65 -24 -71 -1 -6 22 1 28 30
28 16 0 22 -4 17 -12z m380 3 c3 -4 -4 -19 -16 -32 -14 -16 -19 -18 -15 -7 3
10 2 20 -3 23 -6 4 -10 10 -10 16 0 11 37 12 44 0z m136 -6 c0 -8 -4 -15 -10
-15 -5 0 -10 7 -10 15 0 8 5 15 10 15 6 0 10 -7 10 -15z m80 5 c0 -5 -2 -10
-4 -10 -3 0 -8 5 -11 10 -3 6 -1 10 4 10 6 0 11 -4 11 -10z m1118 -2 c-2 -6
-10 -14 -16 -16 -7 -2 -10 2 -6 12 7 18 28 22 22 4z m727 1 c4 -6 5 -12 2 -15
-7 -7 -37 7 -37 17 0 13 27 11 35 -2z m-2385 -9 c0 -5 -4 -10 -10 -10 -5 0
-10 5 -10 10 0 6 5 10 10 10 6 0 10 -4 10 -10z m520 -10 c0 -5 -4 -10 -10 -10
-5 0 -10 5 -10 10 0 6 5 10 10 10 6 0 10 -4 10 -10z m870 -6 c0 -17 -22 -14
-28 4 -2 7 3 12 12 12 9 0 16 -7 16 -16z m-1500 2 c0 -3 -4 -8 -10 -11 -5 -3
-10 -1 -10 4 0 6 5 11 10 11 6 0 10 -2 10 -4z m508 -13 c-4 -24 -24 -27 -24
-3 0 11 6 20 14 20 7 0 12 -8 10 -17z m1072 13 c0 -3 -4 -8 -10 -11 -5 -3 -10
-1 -10 4 0 6 5 11 10 11 6 0 10 -2 10 -4z m406 -23 c-10 -10 -19 5 -10 18 6
11 8 11 12 0 2 -7 1 -15 -2 -18z m444 6 c0 -5 -4 -9 -10 -9 -5 0 -10 7 -10 16
0 8 5 12 10 9 6 -3 10 -10 10 -16z m2530 17 c0 -3 -4 -8 -10 -11 -5 -3 -10 -1
-10 4 0 6 5 11 10 11 6 0 10 -2 10 -4z m-3910 -16 c0 -5 -2 -10 -4 -10 -3 0
-8 5 -11 10 -3 6 -1 10 4 10 6 0 11 -4 11 -10z m2540 1 c0 -5 -7 -12 -16 -15
-14 -5 -15 -4 -4 9 14 17 20 19 20 6z m60 -6 c0 -8 -9 -15 -20 -15 -17 0 -19
2 -8 15 17 19 28 19 28 0z m220 5 c0 -5 -5 -10 -11 -10 -5 0 -7 5 -4 10 3 6 8
10 11 10 2 0 4 -4 4 -10z m-3312 -28 c3 -16 -2 -22 -16 -22 -25 0 -31 7 -25
31 7 27 37 20 41 -9z m362 1 c0 -20 -24 -11 -28 10 -2 12 1 15 12 11 9 -3 16
-13 16 -21z m550 17 c0 -5 7 -7 15 -4 9 4 15 0 15 -9 0 -25 -20 -31 -35 -11
-17 23 -19 34 -5 34 6 0 10 -4 10 -10z m80 -5 c0 -8 -4 -15 -9 -15 -13 0 -22
16 -14 24 11 11 23 6 23 -9z m206 0 c-23 -18 -36 -19 -36 -4 0 5 4 8 9 4 5 -3
12 -1 16 5 3 5 12 10 18 10 7 0 3 -7 -7 -15z m1934 5 c0 -5 -5 -10 -11 -10 -5
0 -7 5 -4 10 3 6 8 10 11 10 2 0 4 -4 4 -10z m1144 0 c31 -11 36 -34 6 -25
-24 8 -27 -10 -3 -19 15 -6 15 -9 -4 -28 -12 -11 -27 -18 -34 -15 -10 4 -7 8
8 12 27 9 19 39 -8 32 -11 -3 -19 -1 -19 5 0 5 9 12 20 15 23 6 26 19 8 26
-24 10 1 7 26 -3z m-5217 -14 c-3 -7 0 -19 6 -25 6 -6 7 -14 4 -18 -4 -4 -15
0 -24 9 -17 17 -12 48 8 48 6 0 9 -6 6 -14z m2045 -30 c-2 -20 -8 -36 -13 -36
-10 0 -12 40 -3 64 10 27 20 9 16 -28z m408 37 c-1 -15 -30 -46 -37 -40 -3 4
2 16 12 27 19 21 25 24 25 13z m390 -3 c0 -5 -2 -10 -4 -10 -3 0 -8 5 -11 10
-3 6 -1 10 4 10 6 0 11 -4 11 -10z m-1983 -20 c17 0 14 -41 -3 -47 -13 -4 -36
52 -26 62 4 3 8 1 10 -4 2 -6 10 -11 19 -11z m553 -1 c0 -6 -4 -7 -10 -4 -5 3
-10 11 -10 16 0 6 5 7 10 4 6 -3 10 -11 10 -16z m980 -6 c0 -22 -2 -25 -10
-13 -13 20 -13 40 0 40 6 0 10 -12 10 -27z m385 17 c3 -5 -1 -10 -9 -10 -9 0
-16 5 -16 10 0 6 4 10 9 10 6 0 13 -4 16 -10z m221 -17 c-10 -10 -19 5 -10 18
6 11 8 11 12 0 2 -7 1 -15 -2 -18z m1184 17 c0 -5 -4 -10 -10 -10 -5 0 -10 5
-10 10 0 6 5 10 10 10 6 0 10 -4 10 -10z m50 0 c0 -5 -5 -10 -11 -10 -5 0 -7
5 -4 10 3 6 8 10 11 10 2 0 4 -4 4 -10z m-4560 -24 c0 -14 -4 -27 -9 -31 -12
-7 -25 31 -16 45 11 18 25 10 25 -14z m446 8 c-3 -9 -6 -20 -6 -25 0 -5 -4 -9
-10 -9 -5 0 -10 11 -10 25 0 16 6 25 16 25 11 0 14 -5 10 -16z m1244 -6 c0 -6
-7 -7 -16 -4 -9 3 -18 6 -20 6 -3 0 -3 4 1 10 7 11 35 2 35 -12z m714 -5 c-5
-16 -4 -16 10 1 14 18 16 18 22 2 6 -15 -18 -45 -38 -46 -14 0 -19 20 -8 40
13 25 21 26 14 3z m766 -4 c0 -5 -4 -9 -10 -9 -5 0 -10 7 -10 16 0 8 5 12 10
9 6 -3 10 -10 10 -16z m-1884 -34 c-3 -8 -1 -17 4 -20 19 -12 9 -23 -26 -30
-42 -7 -52 -2 -34 20 10 12 10 15 -4 15 -22 0 -20 8 6 30 26 20 64 9 54 -15z
m1004 20 c-10 -12 -10 -18 0 -30 10 -12 10 -19 2 -27 -8 -8 -13 -4 -18 16 -7
30 0 56 17 56 8 0 8 -4 -1 -15z m3080 0 c11 -13 10 -14 -4 -9 -9 3 -16 10 -16
15 0 13 6 11 20 -6z m295 5 c-3 -5 -11 -10 -16 -10 -6 0 -7 5 -4 10 3 6 11 10
16 10 6 0 7 -4 4 -10z m-5239 -27 c-8 -8 -36 5 -36 17 0 7 6 7 21 0 11 -7 18
-14 15 -17z m2942 -2 c0 -16 -5 -32 -13 -35 -10 -3 -13 3 -10 22 2 15 4 30 4
35 1 4 5 7 9 7 5 0 9 -13 10 -29z m1225 2 c5 -28 2 -41 -9 -31 -9 9 -12 58 -4
58 4 0 10 -12 13 -27z m-4273 13 c0 -2 -3 -11 -6 -20 -9 -23 -24 -20 -24 4 0
11 7 20 15 20 8 0 15 -2 15 -4z m2820 -11 c13 -16 3 -20 -24 -9 -9 3 -13 10
-10 15 8 13 20 11 34 -6z m1120 5 c0 -5 -4 -10 -10 -10 -5 0 -10 5 -10 10 0 6
5 10 10 10 6 0 10 -4 10 -10z m110 0 c0 -5 -4 -10 -10 -10 -5 0 -10 5 -10 10
0 6 5 10 10 10 6 0 10 -4 10 -10z m1106 -16 c-1 -27 -13 -30 -40 -9 -22 17
-16 30 17 31 20 1 24 -3 23 -22z m-1136 -10 c8 -19 6 -35 -7 -62 -13 -27 -18
-59 -16 -119 1 -71 -1 -83 -15 -84 -16 -1 -16 -2 0 -6 22 -6 40 -57 25 -72
-30 -30 -104 2 -78 33 14 17 -2 31 -24 22 -8 -3 -17 0 -21 6 -8 13 -24 81 -17
74 10 -10 30 19 25 36 -5 19 -32 25 -32 8 0 -5 -4 -10 -10 -10 -22 0 -9 38 15
44 14 4 25 11 25 16 0 6 7 10 15 10 8 0 15 -7 15 -15 0 -22 13 -18 41 11 16
18 20 28 12 31 -16 6 -6 62 15 86 20 22 21 22 32 -9z m-3010 6 c0 -5 -5 -10
-11 -10 -5 0 -7 5 -4 10 3 6 8 10 11 10 2 0 4 -4 4 -10z m2958 -10 c-14 -22
-24 -25 -33 -10 -5 8 17 23 43 29 1 1 -3 -8 -10 -19z m-3908 0 c0 -5 -4 -10
-10 -10 -5 0 -10 5 -10 10 0 6 5 10 10 10 6 0 10 -4 10 -10z m1800 -5 c10 -12
10 -15 0 -15 -10 0 -10 -3 0 -15 10 -12 8 -16 -14 -25 -40 -15 -34 -40 10 -40
19 0 44 5 54 10 16 8 18 8 14 -5 -4 -8 -13 -15 -21 -15 -9 0 -13 -6 -9 -15 3
-10 -1 -15 -12 -15 -24 0 -42 -19 -35 -38 5 -11 3 -13 -8 -7 -8 5 -7 1 4 -12
9 -11 14 -22 11 -26 -10 -9 37 -29 57 -24 10 3 17 1 13 -4 -3 -5 2 -9 10 -9 9
0 16 3 16 7 0 14 -54 54 -67 49 -7 -3 -15 -1 -18 5 -4 5 0 12 9 15 8 3 12 12
9 20 -3 8 0 14 6 14 6 0 11 -7 11 -15 0 -22 28 -18 35 5 8 24 22 25 47 3 26
-23 23 -53 -5 -53 -13 0 -28 5 -35 12 -19 19 -14 3 7 -20 10 -12 22 -18 26
-14 15 13 -7 -22 -28 -45 -11 -12 -24 -20 -28 -17 -5 3 -6 -2 -3 -11 5 -13 2
-14 -20 -5 -20 7 -26 6 -26 -4 0 -10 -16 -13 -69 -11 -55 3 -71 0 -75 -12 -5
-13 0 -14 30 -8 l36 6 -22 -30 c-25 -35 -35 -38 -49 -13 -9 15 -10 14 -11 -6
0 -13 4 -20 10 -17 15 9 12 -6 -5 -25 -10 -11 -12 -24 -6 -45 7 -28 8 -28 13
-7 4 13 14 22 25 21 16 0 16 -1 -2 -9 -18 -7 -19 -8 -2 -15 27 -11 20 -25 -12
-25 -16 0 -35 -8 -42 -17 -10 -11 -10 -14 -1 -9 6 4 12 3 12 -3 0 -6 7 -8 16
-4 14 5 15 3 4 -18 -12 -22 -12 -23 4 -10 23 19 33 6 13 -17 -9 -10 -32 -50
-52 -90 -40 -79 -62 -99 -115 -105 -77 -8 -99 -31 -102 -104 -1 -31 -77 -52
-122 -34 -17 8 -42 14 -55 15 -13 0 -26 7 -29 14 -2 6 -8 12 -13 12 -5 0 -80
29 -166 65 -131 54 -158 63 -165 50 -13 -21 -46 2 -53 37 -4 15 -14 30 -24 33
-23 7 -71 -11 -71 -26 0 -8 4 -8 15 1 9 8 15 9 15 2 0 -6 -4 -13 -9 -16 -14
-9 -41 4 -41 20 0 18 -14 18 -30 -1 -7 -8 -23 -15 -36 -15 -24 0 -32 14 -15
25 17 10 -36 56 -72 62 -40 6 -45 14 -77 134 -16 61 -19 86 -11 119 5 23 12
44 14 47 10 9 27 -8 27 -28 0 -10 4 -19 10 -19 5 0 9 3 9 8 -1 4 0 9 1 12 1 3
3 17 4 33 1 20 -3 27 -16 27 -37 0 -16 20 37 35 30 9 57 21 60 26 7 10 28 20
162 74 169 69 277 87 423 69 25 -2 68 -5 97 -4 43 0 54 -3 64 -21 8 -15 8 -19
0 -15 -22 14 -10 -11 16 -33 19 -17 24 -19 20 -7 -4 10 -1 19 8 23 10 3 13 12
10 24 -5 14 -1 19 14 19 32 0 50 -11 44 -26 -4 -10 2 -17 16 -21 11 -3 21 -11
21 -18 0 -6 8 -21 18 -32 17 -20 17 -20 37 -1 14 14 15 18 4 13 -12 -5 -18 1
-22 21 -9 52 4 66 88 91 74 21 107 23 75 3 -8 -5 -11 -12 -7 -16 12 -12 35 16
30 36 -6 21 11 28 22 9 5 -6 12 -4 21 8 18 24 17 33 -2 33 -14 0 -14 3 -4 15
7 8 18 15 25 15 7 0 18 -7 25 -15z m204 7 c2 -4 -4 -9 -15 -9 -11 -1 -17 2
-14 8 7 11 22 12 29 1z m313 -14 c-3 -8 -6 -5 -6 6 -1 11 2 17 5 13 3 -3 4
-12 1 -19z m1503 12 c0 -5 -4 -10 -10 -10 -5 0 -10 5 -10 10 0 6 5 10 10 10 6
0 10 -4 10 -10z m170 0 c0 -5 -4 -10 -10 -10 -5 0 -10 5 -10 10 0 6 5 10 10
10 6 0 10 -4 10 -10z m122 -22 c-7 -7 -12 -8 -12 -2 0 6 3 14 7 17 3 4 9 5 12
2 2 -3 -1 -11 -7 -17z m84 -1 c8 3 14 0 14 -6 0 -6 8 -11 17 -11 15 0 15 -2
-2 -14 -22 -16 -45 -11 -45 10 0 8 -4 14 -10 14 -5 0 -6 8 -2 18 6 16 7 16 10
0 2 -10 9 -15 18 -11z m-1127 -4 c-7 -10 -15 -20 -16 -22 -2 -2 -3 5 -3 17 0
14 6 22 16 22 14 0 15 -3 3 -17z m-1035 -8 c-5 -13 -2 -14 21 -5 34 13 55 13
55 0 0 -5 -6 -10 -14 -10 -8 0 -17 -12 -21 -27 l-7 -28 -10 25 -9 25 -21 -27
c-20 -28 -38 -37 -38 -19 0 5 7 17 16 25 8 9 12 20 9 26 -7 12 2 30 15 30 5 0
7 -7 4 -15z m1814 -4 c3 -8 -1 -12 -9 -9 -7 2 -15 10 -17 17 -3 8 1 12 9 9 7
-2 15 -10 17 -17z m-1848 -10 c0 -12 -20 -25 -27 -18 -7 7 6 27 18 27 5 0 9
-4 9 -9z m774 -2 c-3 -5 -14 -9 -25 -9 -10 0 -19 4 -19 9 0 5 11 9 25 9 13 0
22 -4 19 -9z m1389 -8 c6 -24 0 -31 -19 -24 -18 7 -18 43 0 43 7 0 16 -9 19
-19z m-4057 -16 c-5 -18 -2 -25 9 -25 10 0 14 -10 13 -35 -1 -30 -18 -42 -18
-12 0 7 -7 25 -15 41 -12 22 -12 32 -4 42 17 21 22 17 15 -11z m268 1 c-3 -9
-10 -16 -15 -16 -14 0 -11 28 4 33 16 6 19 3 11 -17z m4646 9 c31 -12 32 -14
10 -14 -14 0 -34 6 -44 14 -24 18 -13 18 34 0z m-5054 -11 c-4 -11 -1 -14 12
-12 9 2 16 10 15 16 -2 7 2 12 7 12 6 0 10 -9 10 -20 0 -13 9 -22 25 -26 14
-3 25 -12 25 -20 0 -18 -11 -18 -36 1 -24 18 -35 19 -31 3 3 -18 -35 -10 -50
10 -7 9 -13 11 -13 4 0 -6 8 -17 18 -24 18 -14 30 -78 14 -78 -11 0 -52 91
-52 114 0 16 26 35 49 36 8 0 11 -6 7 -16z m5251 10 c-3 -3 -12 -4 -19 -1 -8
3 -5 6 6 6 11 1 17 -2 13 -5z m-3067 -12 c0 -5 -11 -14 -25 -20 -21 -10 -25
-9 -25 4 0 8 4 13 8 10 4 -2 14 -1 22 5 19 11 20 11 20 1z m950 4 c0 -2 2 -11
5 -18 4 -9 -2 -14 -15 -15 -14 -1 -20 4 -20 18 0 10 7 19 15 19 8 0 15 -2 15
-4z m2008 -13 c-10 -2 -26 -2 -35 0 -10 3 -2 5 17 5 19 0 27 -2 18 -5z m-3148
-23 c0 -5 -4 -10 -10 -10 -5 0 -10 5 -10 10 0 6 5 10 10 10 6 0 10 -4 10 -10z
m94 4 c9 -3 16 -13 16 -21 0 -11 -7 -13 -24 -9 -26 6 -28 3 -41 -60 -5 -26 -2
-35 21 -53 15 -11 32 -21 39 -21 6 0 20 -8 29 -19 20 -22 27 -77 9 -74 -7 2
-13 -4 -13 -12 0 -8 -7 -15 -15 -15 -8 0 -15 -4 -15 -10 0 -5 -4 -10 -10 -10
-5 0 -10 6 -10 14 0 12 -21 24 -60 32 -8 1 -26 5 -40 9 -14 3 -1 -4 28 -16 29
-12 50 -24 48 -26 -2 -3 -7 -3 -10 -1 -3 2 -13 -7 -21 -20 -9 -12 -20 -20 -25
-17 -5 3 -12 -4 -15 -16 -5 -15 -12 -19 -28 -15 -12 3 -32 6 -45 6 -19 0 -21
3 -12 19 16 31 12 36 -10 11 -22 -26 -22 -26 -24 13 -1 20 3 27 16 27 9 0 23
10 29 23 7 12 17 25 23 29 7 5 4 8 -6 8 -10 0 -18 5 -18 10 0 13 67 3 95 -15
14 -9 26 -9 43 -2 27 12 29 27 3 27 -11 0 -29 14 -41 30 -12 17 -25 28 -30 25
-4 -3 -6 4 -3 15 3 10 14 22 25 26 13 4 17 9 10 16 -6 6 -6 21 0 43 8 25 15
31 29 28 13 -4 19 0 19 11 0 17 9 20 34 10z m116 -14 c0 -5 -4 -10 -9 -10 -6
0 -13 5 -16 10 -3 6 1 10 9 10 9 0 16 -4 16 -10z m-654 -11 c3 -6 2 -15 -3
-20 -5 -5 -14 0 -21 11 -10 17 -10 20 2 20 8 0 18 -5 22 -11z m724 1 c0 -5 -4
-10 -10 -10 -5 0 -10 5 -10 10 0 6 5 10 10 10 6 0 10 -4 10 -10z m2707 -26
c-9 -9 -28 6 -21 18 4 6 10 6 17 -1 6 -6 8 -13 4 -17z m293 16 c0 -5 -4 -10
-10 -10 -5 0 -10 5 -10 10 0 6 5 10 10 10 6 0 10 -4 10 -10z m140 6 c0 -2 -7
-7 -16 -10 -8 -3 -12 -2 -9 4 6 10 25 14 25 6z m-1210 -36 c0 -3 -9 -11 -20
-17 -17 -12 -19 -10 -17 16 2 24 4 26 20 17 9 -6 17 -13 17 -16z m1280 19 c0
-14 -26 -17 -43 -5 -14 11 -12 13 13 13 17 0 30 -4 30 -8z m-5400 -28 c1 -24
2 -25 14 -8 18 23 43 22 56 -3 7 -14 7 -20 0 -20 -19 0 -25 5 -22 18 2 6 -2
12 -8 12 -5 0 -10 -7 -10 -15 0 -8 -6 -15 -14 -15 -8 0 -22 -3 -32 -7 -14 -5
-16 -2 -11 16 5 19 3 20 -10 9 -12 -10 -18 -9 -29 6 -18 26 -10 34 31 33 31
-1 35 -4 35 -26z m5095 16 c-10 -8 -15 -19 -11 -25 4 -7 1 -12 -6 -12 -7 0
-19 9 -25 19 -14 22 -6 29 36 30 23 1 24 0 6 -12z m-1075 -27 c0 -5 -4 -10
-10 -10 -5 0 -10 5 -10 10 0 6 5 10 10 10 6 0 10 -4 10 -10z m1093 -5 c4 -8 2
-17 -3 -20 -6 -4 -10 3 -10 14 0 25 6 27 13 6z m172 -15 c3 -5 -1 -10 -10 -10
-9 0 -13 5 -10 10 3 6 8 10 10 10 2 0 7 -4 10 -10z m-1245 -24 c0 -16 -18 -31
-27 -22 -8 8 5 36 17 36 5 0 10 -6 10 -14z m99 -28 c1 -5 -3 -8 -9 -8 -5 0
-10 12 -9 28 0 24 1 25 9 7 5 -11 9 -23 9 -27z m701 7 c-7 -8 -17 -15 -23 -15
-6 0 -2 7 9 15 25 19 30 19 14 0z m-2600 -15 c0 -5 -5 -10 -11 -10 -5 0 -7 5
-4 10 3 6 8 10 11 10 2 0 4 -4 4 -10z m2380 6 c0 -3 -4 -8 -10 -11 -5 -3 -10
-1 -10 4 0 6 5 11 10 11 6 0 10 -2 10 -4z m520 -6 c0 -5 -4 -10 -10 -10 -5 0
-10 5 -10 10 0 6 5 10 10 10 6 0 10 -4 10 -10z m-220 -20 c0 -5 -2 -10 -4 -10
-3 0 -8 5 -11 10 -3 6 -1 10 4 10 6 0 11 -4 11 -10z m211 -28 c-28 -4 -40 6
-21 18 9 6 20 4 29 -3 12 -10 11 -13 -8 -15z m121 6 c-7 -7 -12 -8 -12 -2 0
14 12 26 19 19 2 -3 -1 -11 -7 -17z m-422 -23 c6 4 10 -8 10 -30 l0 -36 22 21
c26 24 27 24 57 1 24 -18 25 -18 42 3 10 11 18 16 19 9 0 -6 -4 -15 -10 -18
-5 -3 -10 -15 -10 -27 0 -12 -30 -52 -72 -95 -40 -41 -72 -77 -70 -79 5 -10 1
-25 -6 -20 -5 3 -36 -22 -70 -54 -34 -32 -83 -76 -110 -97 -26 -21 -48 -41
-50 -45 -8 -18 -20 -6 -26 25 -3 17 -13 106 -21 196 -16 162 -13 194 16 176 6
-5 30 -10 53 -12 22 -2 43 -8 46 -14 7 -11 40 -2 40 12 0 5 -8 9 -17 9 -15 0
-16 2 -3 10 19 12 33 13 26 1 -3 -5 1 -12 10 -15 9 -4 13 -2 8 5 -4 7 0 9 13
5 23 -7 51 34 38 55 -6 8 -4 11 7 7 11 -5 14 0 11 20 l-4 27 20 -23 c11 -13
25 -21 31 -17z m576 -4 c-9 -14 -36 -14 -36 -1 0 6 5 10 11 10 6 0 8 7 5 18
-7 16 -6 16 10 0 9 -9 13 -21 10 -27z m-536 9 c0 -5 -4 -10 -10 -10 -5 0 -10
5 -10 10 0 6 5 10 10 10 6 0 10 -4 10 -10z m360 -6 c0 -14 -3 -14 -15 -4 -8 7
-15 14 -15 16 0 2 7 4 15 4 8 0 15 -7 15 -16z m60 6 c0 -5 -4 -10 -10 -10 -5
0 -10 5 -10 10 0 6 5 10 10 10 6 0 10 -4 10 -10z m40 6 c0 -3 -4 -8 -10 -11
-5 -3 -10 -1 -10 4 0 6 5 11 10 11 6 0 10 -2 10 -4z m-610 -26 c0 -5 -5 -10
-11 -10 -5 0 -7 5 -4 10 3 6 8 10 11 10 2 0 4 -4 4 -10z m-620 -16 c0 -9 -5
-14 -12 -12 -18 6 -21 28 -4 28 9 0 16 -7 16 -16z m561 -15 c-12 -12 -25 -18
-28 -15 -3 3 5 14 18 25 31 25 39 17 10 -10z m649 22 c0 -12 -28 -22 -34 -12
-3 5 -3 11 1 15 9 9 33 7 33 -3z m-5155 -23 c5 -5 55 -182 55 -194 0 -2 -4 -4
-9 -4 -16 0 -181 169 -181 186 0 8 4 12 10 9 5 -3 18 -1 27 4 18 11 88 10 98
-1z m2085 -8 c0 -5 -2 -10 -4 -10 -3 0 -8 5 -11 10 -3 6 -1 10 4 10 6 0 11 -4
11 -10z m1668 -16 c2 -1 -2 -12 -8 -24 l-12 -22 -24 23 c-36 34 -32 50 9 36
17 -6 33 -12 35 -13z m-2153 -31 c0 -42 -3 -48 -23 -51 -12 -2 -20 -8 -17 -13
4 -5 0 -9 -9 -9 -8 0 -21 -3 -30 -6 -28 -11 -18 32 14 59 30 25 27 43 -4 31
-12 -4 -15 -2 -10 9 3 9 13 13 24 10 14 -4 36 3 55 17 1 0 1 -21 0 -47z
m-1835 -76 c0 -4 31 -40 68 -80 38 -40 76 -84 85 -98 30 -45 21 -178 -14 -212
-16 -15 -19 -15 -19 -2 0 8 -7 15 -15 15 -8 0 -19 9 -25 19 -5 11 -18 22 -27
25 -20 7 -46 54 -37 67 3 5 0 9 -6 9 -8 0 -10 -9 -6 -25 4 -14 4 -25 1 -25
-20 0 -117 49 -157 78 l-47 35 6 81 c6 93 30 153 76 192 l31 26 43 -49 c23
-26 42 -52 43 -56z m2190 94 c0 -14 -18 -23 -31 -15 -8 4 -7 9 2 15 18 11 29
11 29 0z m-60 -26 c8 -7 22 -15 30 -18 12 -4 12 -6 -2 -6 -9 -1 -20 4 -23 9
-4 6 -11 8 -16 5 -5 -4 -9 -1 -9 5 0 7 -6 8 -18 1 -25 -13 -54 4 -32 19 17 11
47 4 70 -15z m10 -65 c0 -5 -7 -10 -16 -10 -8 0 -12 5 -9 10 3 6 10 10 16 10
5 0 9 -4 9 -10z m-180 -11 c0 -6 -10 -19 -22 -30 l-23 -19 28 10 c37 13 37 13
37 -11 0 -20 -4 -21 -45 -17 -29 4 -45 2 -45 -5 0 -7 -7 -1 -16 11 -11 16 -12
27 -5 39 6 10 11 14 11 10 0 -5 6 -2 13 5 17 16 67 22 67 7z m180 -27 c0 -13
-12 -22 -22 -16 -10 6 -1 24 13 24 5 0 9 -4 9 -8z m-334 -37 c-22 -22 -20 -28
4 -13 17 11 22 10 30 -2 8 -12 10 -12 10 4 0 19 1 19 21 -2 11 -12 18 -26 15
-31 -4 -5 12 -7 36 -4 29 4 39 3 34 -5 -4 -7 -14 -12 -22 -12 -8 0 -14 -5 -14
-10 0 -7 -6 -7 -20 0 -17 9 -20 8 -20 -10 0 -22 -25 -28 -33 -7 -3 8 -7 6 -12
-6 -4 -10 -3 -23 3 -29 19 -19 -6 -55 -38 -54 -15 1 -26 4 -24 8 2 3 1 13 -2
22 -5 12 -10 13 -25 5 -14 -7 -19 -6 -19 3 0 8 -5 6 -11 -4 -9 -16 -39 -26
-39 -13 0 18 54 106 75 123 14 11 25 25 25 30 0 11 32 33 39 27 2 -2 -4 -11
-13 -20z m124 -25 c0 -5 -4 -10 -9 -10 -6 0 -13 5 -16 10 -3 6 1 10 9 10 9 0
16 -4 16 -10z m40 0 c0 -5 -7 -10 -16 -10 -8 0 -12 5 -9 10 3 6 10 10 16 10 5
0 9 -4 9 -10z m20 -43 c0 -12 -9 -28 -20 -35 -19 -12 -20 -11 -17 13 2 15 10
31 18 36 19 12 19 12 19 -14z m-1380 -16 c0 -12 -23 -31 -37 -31 -13 0 -18 31
-7 42 7 7 44 -2 44 -11z m1596 -5 c1 -10 9 -23 16 -29 8 -7 22 -25 32 -41 14
-23 15 -30 5 -36 -9 -6 -4 -18 22 -48 55 -63 67 -76 90 -97 l22 -20 -6 37 c-4
28 -2 38 11 43 9 3 18 1 20 -4 2 -6 9 -11 15 -11 39 0 41 -121 3 -172 -23 -33
-36 -36 -29 -8 4 14 0 20 -13 20 -9 0 -25 7 -35 15 -15 15 -17 13 -23 -20 -6
-30 -11 -35 -35 -35 -16 0 -34 7 -41 15 -7 8 -18 15 -26 15 -24 0 -64 23 -57
33 3 5 7 25 8 43 2 43 8 48 35 34 37 -20 42 -6 10 29 -16 19 -30 41 -30 48 0
10 -7 12 -21 8 -14 -5 -25 -1 -33 10 -13 18 -10 61 5 70 4 3 5 13 2 22 -5 12
-2 15 10 10 15 -6 16 -3 7 13 -10 19 -6 24 13 21 5 -1 6 13 2 30 -5 23 -4 30
6 27 7 -2 13 -12 15 -22z m-346 -76 c-6 -12 -14 -20 -17 -17 -2 3 1 14 8 26 7
11 15 18 17 16 2 -2 -2 -13 -8 -25z m-132 -32 c21 -18 13 -28 -14 -18 -26 10
-44 6 -44 -10 0 -16 33 -50 48 -50 7 0 11 -4 8 -9 -3 -5 0 -14 8 -20 11 -9 15
-7 19 9 12 45 43 11 50 -54 4 -36 4 -36 -32 -35 -20 1 -60 8 -90 16 -42 11
-56 12 -62 2 -10 -17 -69 -16 -80 2 -12 19 -12 19 11 57 25 40 49 41 93 2 29
-25 36 -28 47 -16 16 21 -26 79 -52 70 -25 -8 -22 9 8 46 27 31 49 33 82 8z
m0 -50 c-2 -6 -10 -14 -16 -16 -7 -2 -10 2 -6 12 7 18 28 22 22 4z m-1853 -39
c64 -31 93 -54 81 -66 -3 -3 -17 -1 -30 5 -20 9 -25 8 -30 -5 -4 -9 -5 -17 -4
-17 37 -22 58 -38 58 -46 0 -11 -94 -47 -135 -51 -29 -4 -30 -2 -32 36 -1 22
1 47 4 55 3 8 5 39 3 68 -1 33 3 52 10 52 6 0 40 -14 75 -31z m2292 -26 c3 -7
2 -33 -1 -58 -7 -41 -10 -45 -36 -45 -38 0 -49 29 -18 53 20 17 21 20 5 28
-13 8 -15 14 -7 29 11 21 48 17 57 -7z m2193 -72 c0 -45 -2 -50 -40 -75 -67
-44 -79 -32 -29 30 17 21 33 51 36 66 10 49 33 34 33 -21z m-3612 7 c26 -9 27
-39 2 -45 -10 -3 -11 -2 -3 4 8 6 5 11 -11 19 l-23 10 18 -35 c20 -42 19 -46
-16 -37 -26 7 -55 55 -55 90 0 16 36 14 88 -6z m1162 -13 c0 -28 -12 -32 -30
-10 -14 16 -6 35 16 35 8 0 14 -10 14 -25z m620 -10 c-7 -9 -15 -13 -19 -10
-3 3 1 10 9 15 21 14 24 12 10 -5z m-1690 -26 c0 7 5 9 11 5 16 -9 -4 -26 -24
-19 -8 4 -18 14 -22 23 -5 13 -2 13 15 -3 12 -11 20 -13 20 -6z m800 11 c0 -5
-5 -10 -11 -10 -5 0 -7 5 -4 10 3 6 8 10 11 10 2 0 4 -4 4 -10z m-835 -48 c-9
-9 -35 8 -35 24 0 16 2 16 20 -1 11 -10 18 -20 15 -23z m234 -39 c2 -2 2 -6
-2 -9 -7 -7 -67 27 -67 39 0 6 28 -6 69 -30z m987 -7 c13 -10 23 -11 32 -4 17
15 65 19 73 7 3 -6 21 -11 40 -13 19 -2 45 -8 59 -13 14 -6 32 -9 40 -7 8 1
19 3 23 3 5 1 5 6 2 11 -3 6 -1 10 4 10 13 0 13 -3 5 -24 -3 -9 -13 -16 -21
-16 -12 0 -14 -7 -10 -29 4 -19 2 -31 -6 -35 -8 -3 -3 -12 13 -25 21 -18 34
-21 85 -16 41 3 54 2 40 -4 -41 -20 -101 -12 -164 21 -35 18 -74 42 -87 55
-14 13 -30 23 -36 23 -12 0 -109 48 -122 61 -16 15 8 11 30 -5z m428 -11 c3
-8 1 -15 -3 -15 -5 0 -11 7 -15 15 -3 8 -1 15 3 15 5 0 11 -7 15 -15z m-2161
-9 c9 -7 17 -18 17 -23 0 -17 42 -23 54 -8 6 7 35 15 65 17 l54 3 20 -55 c11
-30 30 -83 44 -118 24 -63 24 -86 -2 -76 -9 4 -12 0 -10 -13 2 -10 4 -22 4
-26 1 -5 6 -5 11 -2 6 4 8 11 4 16 -3 6 3 5 15 -3 12 -7 21 -18 21 -24 0 -6 7
-17 15 -24 8 -7 15 -21 15 -31 0 -11 5 -19 10 -19 6 0 10 -5 10 -11 0 -6 7
-17 15 -25 17 -17 21 -94 5 -94 -22 0 -60 33 -61 54 -1 18 -2 18 -6 2 -4 -15
-11 -17 -36 -12 -18 4 -63 11 -102 17 -38 6 -77 13 -85 17 -8 3 -21 4 -28 3
-20 -3 -11 61 10 67 10 2 14 10 11 19 -3 8 -9 11 -12 6 -3 -4 -13 -14 -22 -21
-14 -11 -16 -8 -13 20 1 18 5 47 9 63 4 17 8 42 10 56 1 14 4 30 7 35 7 11 11
140 4 134 -2 -3 -7 -21 -9 -40 -3 -19 -6 -35 -7 -35 -1 0 -3 -9 -4 -20 -2 -11
-6 -45 -10 -75 -4 -30 -12 -88 -18 -129 l-11 -73 -64 5 c-36 3 -63 1 -63 -5 0
-5 -15 -7 -32 -4 -18 3 -51 7 -73 10 -81 10 -89 17 -88 77 0 34 -1 41 -4 19
-2 -19 -8 -39 -12 -43 -5 -5 -34 -1 -65 8 -61 18 -90 49 -115 127 -21 63 -16
69 84 89 116 24 115 24 116 -8 l1 -28 7 30 c4 21 16 35 41 47 19 9 66 32 103
50 38 18 83 41 100 50 39 21 47 21 70 4z m2205 -69 c5 -24 -15 -21 -21 4 -3
13 -1 19 6 16 7 -2 13 -11 15 -20z m-1675 -22 c26 -3 47 -10 47 -16 0 -5 -5
-9 -11 -9 -6 0 -8 -9 -4 -20 3 -11 2 -20 -4 -20 -5 0 -8 -13 -6 -29 4 -30 -21
-71 -43 -71 -14 0 -45 57 -39 73 2 7 -2 18 -10 25 -7 7 -13 29 -13 48 0 29 3
34 18 31 9 -3 38 -8 65 -12z m127 -5 c0 -5 -9 -10 -20 -10 -11 0 -20 5 -20 10
0 6 9 10 20 10 11 0 20 -4 20 -10z m60 -10 l25 -8 -25 -1 c-14 0 -32 4 -40 9
-13 9 -13 10 0 9 8 -1 26 -5 40 -9z m-123 -32 c-3 -8 -6 -5 -6 6 -1 11 2 17 5
13 3 -3 4 -12 1 -19z m206 15 c-7 -2 -19 -2 -25 0 -7 3 -2 5 12 5 14 0 19 -2
13 -5z m64 -5 c18 -7 33 -16 33 -20 0 -4 8 -8 19 -8 13 0 18 -7 17 -22 -1 -20
-7 -23 -43 -24 -38 0 -41 2 -29 15 26 32 28 41 6 41 -12 0 -19 -4 -16 -8 2 -4
1 -14 -4 -22 -7 -11 -11 -11 -24 2 -14 14 -14 17 0 29 12 10 12 14 2 20 -19
13 1 11 39 -3z m3223 -6 c0 -51 23 -299 36 -384 17 -120 17 -121 0 -115 -10 4
-13 1 -10 -8 3 -7 -2 -15 -13 -18 -16 -4 -16 -5 2 -6 35 -2 48 -16 37 -37 -6
-11 -13 -30 -16 -44 -3 -14 -18 -32 -33 -41 -27 -15 -30 -14 -72 15 -48 34
-70 56 -119 114 -34 40 -92 128 -92 138 0 18 -34 73 -41 68 -5 -3 -8 -2 -7 3
1 4 -2 18 -6 31 -6 18 2 40 34 96 l41 72 122 67 c67 37 125 67 130 67 4 0 7
-8 7 -18z m428 -128 c120 -125 121 -128 62 -159 -24 -13 -27 -12 -39 16 -14
31 -27 34 -81 19 -55 -16 -64 1 -68 130 -3 64 0 110 5 110 5 0 60 -52 121
-116z m-3493 78 c4 -11 8 -12 20 -2 8 6 20 8 27 4 7 -5 23 -7 35 -5 13 1 30
-4 38 -13 9 -8 21 -13 28 -10 8 3 13 -4 13 -16 0 -11 -3 -20 -7 -20 -19 0 -39
14 -39 26 0 19 -16 18 -24 -1 -3 -8 -11 -15 -17 -15 -8 0 -8 4 1 15 8 10 9 15
1 15 -6 0 -13 -10 -16 -23 -5 -19 -11 -22 -46 -19 -21 2 -39 9 -39 16 0 6 -5
4 -10 -4 -7 -11 -10 -4 -10 27 0 35 3 42 20 40 11 -1 22 -8 25 -15z m-281 -17
c-4 -8 -13 -15 -22 -15 -13 0 -12 -3 3 -14 16 -12 17 -16 6 -30 -7 -9 -17 -13
-21 -11 -13 8 -8 48 8 68 18 21 33 22 26 2z m491 -25 c8 -13 -5 -13 -25 0 -13
8 -13 10 2 10 9 0 20 -4 23 -10z m-375 -10 c0 -5 -4 -10 -10 -10 -5 0 -10 5
-10 10 0 6 5 10 10 10 6 0 10 -4 10 -10z m280 -15 c0 -10 10 -15 30 -15 20 0
30 -5 30 -15 0 -9 9 -15 25 -15 19 0 25 5 24 23 0 12 -3 16 -6 10 -6 -17 -33
-16 -33 1 0 7 10 16 22 19 29 8 47 -19 41 -60 -3 -19 -1 -33 5 -33 5 0 9 8 8
18 -1 21 34 18 49 -5 6 -8 21 -30 35 -48 14 -18 34 -45 45 -61 28 -39 57 -64
66 -58 4 2 10 0 14 -6 3 -6 -1 -13 -10 -16 -14 -6 -12 -10 9 -33 13 -14 42
-46 64 -70 37 -41 40 -42 47 -22 3 11 10 21 14 21 8 0 21 -47 21 -75 0 -19
-87 -65 -121 -65 -27 0 -28 2 -22 33 3 17 12 52 19 76 12 40 11 46 -7 70 -13
16 -31 26 -50 27 -37 2 -36 0 -42 52 -6 55 -20 71 -43 48 -9 -10 -27 -22 -40
-26 -15 -6 -27 -23 -34 -50 -6 -22 -14 -41 -18 -41 -60 -10 -69 -8 -89 20 -12
15 -25 49 -28 75 -5 34 -11 44 -18 37 -31 -31 -79 9 -53 44 7 10 18 15 24 11
21 -13 32 3 22 30 -8 21 -6 26 15 36 14 6 24 16 22 22 -5 12 -10 12 -44 1 -19
-5 -23 -3 -23 18 0 13 3 27 7 30 11 12 23 8 23 -8z m-210 -5 c13 -8 13 -11 -2
-27 -11 -11 -18 -13 -18 -5 0 7 -9 12 -20 12 -11 0 -20 7 -20 15 0 17 36 20
60 5z m-345 -10 c6 0 16 -30 23 -67 6 -38 14 -84 17 -103 6 -32 3 -29 -40 35
-26 39 -51 81 -56 94 -14 35 -4 55 24 47 12 -3 27 -6 32 -6z m2485 -14 c0 -3
-4 -8 -10 -11 -5 -3 -10 -1 -10 4 0 6 5 11 10 11 6 0 10 -2 10 -4z m-2170 -16
c0 -5 7 -10 16 -10 8 0 12 -5 9 -10 -4 -6 -10 -8 -15 -5 -5 3 -23 -9 -40 -26
l-31 -33 23 -21 23 -21 23 47 c16 34 27 47 37 42 20 -7 9 -73 -14 -89 -13 -10
-13 -14 -2 -28 11 -13 12 -24 2 -56 -11 -36 -15 -39 -57 -46 -56 -8 -64 1 -64
69 0 31 6 54 16 64 8 9 13 22 10 30 -3 8 -1 24 5 35 8 16 8 22 -2 29 -10 6
-10 10 0 23 15 18 61 22 61 6z m800 -61 c0 -18 -35 -5 -38 14 -3 16 -1 17 17
7 12 -6 21 -15 21 -21z m110 -30 c19 -4 36 -8 38 -9 1 0 9 0 17 0 12 0 10 -8
-9 -37 -14 -21 -28 -50 -31 -65 -7 -26 -25 -40 -25 -18 0 5 -11 12 -25 16 -33
8 -55 34 -29 34 15 0 16 2 5 9 -12 8 -12 12 3 26 22 23 15 29 -18 14 -23 -11
-29 -10 -47 9 -21 24 -18 27 31 35 14 2 32 2 40 -1 8 -2 31 -8 50 -13z m-1003
-27 c-10 -10 -14 -22 -10 -25 3 -4 -3 -16 -14 -27 -12 -10 -23 -25 -26 -32 -9
-27 -29 9 -22 40 5 23 16 34 43 46 48 19 48 19 29 -2z m-1120 -38 c-7 -7 -37
7 -37 17 0 6 9 5 21 -1 11 -7 19 -14 16 -16z m5273 -30 c3 -16 15 -48 28 -71
12 -24 19 -43 15 -43 -5 0 0 -5 10 -11 19 -11 24 -39 6 -39 -5 0 -8 -4 -4 -9
3 -5 1 -12 -4 -15 -5 -4 -13 4 -17 16 -8 22 -8 22 -15 -7 -6 -25 -7 -26 -8 -6
-1 20 -5 22 -28 16 -23 -5 -33 0 -67 38 l-41 44 39 49 c21 27 43 48 47 47 5
-2 9 4 9 13 0 27 25 9 30 -22z m-1826 -9 c17 -25 22 -49 9 -42 -5 3 -17 1 -27
-3 -18 -6 -16 -8 12 -21 33 -14 46 -36 15 -24 -27 10 -143 75 -143 80 0 3 14
2 31 -2 24 -4 33 -1 45 16 20 28 38 27 58 -4z m-1600 -11 c3 -8 2 -12 -4 -9
-6 3 -10 10 -10 16 0 14 7 11 14 -7z m-874 -20 c0 -8 -4 -14 -10 -14 -5 0 -10
9 -10 21 0 11 5 17 10 14 6 -3 10 -13 10 -21z m875 -13 c3 -5 1 -12 -5 -16 -5
-3 -10 1 -10 9 0 18 6 21 15 7z m755 -3 c0 -6 3 -8 7 -5 11 12 53 -35 53 -59
0 -12 -6 -27 -14 -33 -21 -18 -30 -69 -15 -87 10 -12 14 -12 20 -2 12 20 18 6
20 -48 3 -76 -5 -90 -59 -104 -81 -21 -79 -20 -57 -35 11 -8 26 -19 33 -26 7
-6 20 -8 28 -5 18 7 18 -14 1 -38 -37 -51 -208 17 -222 87 -3 18 -13 63 -22
100 l-17 68 24 23 c14 13 56 58 95 100 55 59 76 76 97 76 16 0 28 -5 28 -12z
m-1622 -27 c3 -8 -1 -12 -9 -9 -7 2 -15 10 -17 17 -3 8 1 12 9 9 7 -2 15 -10
17 -17z m102 9 c0 -5 -2 -10 -4 -10 -3 0 -8 5 -11 10 -3 6 -1 10 4 10 6 0 11
-4 11 -10z m120 -10 c0 -5 -5 -10 -11 -10 -5 0 -7 5 -4 10 3 6 8 10 11 10 2 0
4 -4 4 -10z m1550 6 c0 -3 -4 -8 -10 -11 -5 -3 -10 -1 -10 4 0 6 5 11 10 11 6
0 10 -2 10 -4z m-1252 -29 c2 -11 -2 -14 -17 -10 -22 5 -26 14 -14 27 10 10
28 1 31 -17z m52 -18 c0 -18 -2 -19 -15 -9 -15 12 -12 30 6 30 5 0 9 -10 9
-21z m1289 6 c5 -5 -25 -9 -46 -6 -7 1 -13 -3 -13 -9 0 -5 -5 -10 -12 -10 -6
0 -8 3 -5 7 4 3 2 12 -4 20 -10 11 -4 12 32 8 24 -3 45 -8 48 -10z m2309 -34
c18 -22 32 -42 32 -45 0 -15 -80 -4 -101 13 l-24 19 24 26 c14 14 27 26 31 26
4 0 21 -18 38 -39z m-2296 -1 c10 0 18 -5 18 -11 0 -6 -7 -9 -15 -6 -8 4 -17
2 -20 -3 -4 -6 7 -10 23 -10 30 0 101 -54 89 -67 -11 -10 -67 20 -115 62 -32
28 -40 40 -30 46 7 5 17 4 22 -1 6 -6 18 -10 28 -10z m-1378 -11 c-3 -5 -10
-7 -15 -3 -5 3 -7 10 -3 15 3 5 10 7 15 3 5 -3 7 -10 3 -15z m48 -11 c-7 -7
-12 -8 -12 -2 0 14 12 26 19 19 2 -3 -1 -11 -7 -17z m-342 2 c0 -5 -5 -10 -11
-10 -5 0 -7 5 -4 10 3 6 8 10 11 10 2 0 4 -4 4 -10z m60 -6 c0 -2 -9 -4 -21
-4 -11 0 -18 4 -14 10 5 8 35 3 35 -6z m176 -14 c1 -23 -3 -30 -16 -30 -10 0
-21 7 -24 16 -9 23 -8 24 11 17 10 -4 14 -2 10 4 -4 6 -1 14 5 16 7 3 13 6 13
6 0 1 1 -12 1 -29z m3944 0 c0 -5 -4 -10 -10 -10 -5 0 -10 5 -10 10 0 6 5 10
10 10 6 0 10 -4 10 -10z m-3890 -50 c0 -5 -4 -10 -10 -10 -5 0 -10 5 -10 10 0
6 5 10 10 10 6 0 10 -4 10 -10z m79 -16 c11 -11 -7 -10 -34 3 l-30 14 30 -6
c16 -4 32 -9 34 -11z m3487 8 c6 -4 16 -17 23 -29 10 -20 8 -23 -27 -34 -29
-8 -45 -8 -59 0 -17 8 -26 6 -47 -10 -42 -33 -44 -12 -3 28 l36 37 23 -20 23
-19 -17 21 c-10 11 -18 24 -18 27 0 9 52 9 66 -1z m72 -21 c3 -8 -1 -12 -9 -9
-7 2 -15 10 -17 17 -3 8 1 12 9 9 7 -2 15 -10 17 -17z m-2128 -11 c6 -11 9
-20 7 -20 -2 0 -12 9 -22 20 -10 11 -13 20 -7 20 6 0 16 -9 22 -20z m-1306
-55 c6 -17 -2 -45 -14 -45 -13 0 -20 30 -7 31 9 0 9 2 0 6 -17 6 -16 23 1 23
8 0 16 -7 20 -15z m83 -21 c-8 -8 -47 10 -47 22 0 12 5 11 25 -2 14 -9 24 -18
22 -20z m59 -18 c10 -8 16 -18 11 -22 -8 -8 -57 15 -57 28 0 13 24 9 46 -6z
m3230 -11 c18 -13 16 -14 -26 -14 -42 0 -44 1 -26 14 11 8 23 15 26 15 3 0 15
-7 26 -15z m-636 1 c0 -3 -4 -8 -10 -11 -5 -3 -10 -1 -10 4 0 6 5 11 10 11 6
0 10 -2 10 -4z m80 -9 c0 -2 -10 -12 -21 -23 -22 -19 -22 -19 -10 4 10 18 31
31 31 19z m-2537 -34 c35 -5 51 -21 25 -25 -7 0 -17 -2 -23 -2 -5 -1 -16 -5
-24 -10 -9 -6 -19 -1 -32 15 -23 30 -24 43 -1 34 9 -4 34 -9 55 -12z m1677 8
c0 -5 -7 -12 -16 -15 -14 -5 -15 -4 -4 9 14 17 20 19 20 6z m1447 -17 c-10
-10 -77 -22 -77 -14 0 5 8 11 18 13 26 7 66 8 59 1z m-1202 -23 c-3 -6 -11
-11 -17 -11 -6 0 -6 6 2 15 14 17 26 13 15 -4z m512 -3 c-3 -8 -6 -5 -6 6 -1
11 2 17 5 13 3 -3 4 -12 1 -19z m-332 2 c-3 -5 -12 -10 -18 -10 -7 0 -6 4 3
10 19 12 23 12 15 0z m200 0 c3 -5 1 -10 -4 -10 -6 0 -11 5 -11 10 0 6 2 10 4
10 3 0 8 -4 11 -10z m345 0 c0 -5 -4 -10 -10 -10 -5 0 -10 5 -10 10 0 6 5 10
10 10 6 0 10 -4 10 -10z m-1800 -10 c-20 -13 -33 -13 -25 0 3 6 14 10 23 10
15 0 15 -2 2 -10z m141 -13 c-1 -12 -15 -9 -19 4 -3 6 1 10 8 8 6 -3 11 -8 11
-12z m1964 2 c11 -16 -4 -57 -23 -68 -13 -7 -26 -5 -45 8 l-26 17 25 27 c25
28 58 35 69 16z m-2087 -20 c12 -19 11 -19 -8 -9 -11 6 -20 15 -20 20 0 17 15
11 28 -11z m382 6 c0 -8 -4 -15 -10 -15 -5 0 -10 7 -10 15 0 8 5 15 10 15 6 0
10 -7 10 -15z m460 5 c0 -5 -5 -10 -11 -10 -5 0 -7 5 -4 10 3 6 8 10 11 10 2
0 4 -4 4 -10z m71 -17 c13 -15 12 -15 -8 -4 -24 12 -29 21 -14 21 5 0 15 -7
22 -17z m464 6 c10 -15 -2 -24 -17 -12 -7 6 -22 13 -33 16 -13 3 -9 5 12 6 17
0 35 -4 38 -10z m-2511 -14 c-4 -8 -8 -15 -10 -15 -2 0 -4 7 -4 15 0 8 4 15
10 15 5 0 7 -7 4 -15z m1381 -3 c-3 -3 -11 0 -18 7 -9 10 -8 11 6 5 10 -3 15
-9 12 -12z m55 4 c0 -17 27 -29 35 -16 8 13 45 13 45 1 0 -5 3 -16 6 -25 5
-13 0 -13 -33 -4 -21 5 -42 13 -48 16 -5 4 -14 7 -20 7 -5 0 -11 8 -13 18 -2
10 3 17 12 17 9 0 16 -6 16 -14z m460 4 c0 -5 -7 -10 -16 -10 -8 0 -12 5 -9
10 3 6 10 10 16 10 5 0 9 -4 9 -10z m-656 -21 c20 -18 0 -17 -34 2 -35 19 -35
19 -5 13 17 -4 34 -10 39 -15z m2421 11 c-3 -5 -10 -10 -16 -10 -5 0 -9 5 -9
10 0 6 7 10 16 10 8 0 12 -4 9 -10z m-1338 -16 c-3 -3 -12 -4 -19 -1 -8 3 -5
6 6 6 11 1 17 -2 13 -5z m-982 -26 c7 -7 2 -8 -15 -3 -14 4 -29 12 -35 17 -7
7 -2 8 15 3 14 -4 30 -12 35 -17z m1575 -1 c0 -24 -19 -42 -31 -30 -8 8 -8 16
1 32 11 22 30 20 30 -2z m160 3 c0 -5 -2 -10 -4 -10 -3 0 -8 5 -11 10 -3 6 -1
10 4 10 6 0 11 -4 11 -10z m40 6 c0 -3 -4 -8 -10 -11 -5 -3 -10 -1 -10 4 0 6
5 11 10 11 6 0 10 -2 10 -4z m438 -8 c19 -19 14 -28 -18 -28 -32 0 -33 1 -24
24 7 19 25 21 42 4z m-5508 -18 c-6 -11 -13 -20 -16 -20 -2 0 0 9 6 20 6 11
13 20 16 20 2 0 0 -9 -6 -20z m330 0 c0 -5 -7 -10 -15 -10 -8 0 -15 5 -15 10
0 6 7 10 15 10 8 0 15 -4 15 -10z m4250 0 c0 -5 -2 -10 -4 -10 -3 0 -8 5 -11
10 -3 6 -1 10 4 10 6 0 11 -4 11 -10z m-403 -6 c-3 -3 -12 -4 -19 -1 -8 3 -5
6 6 6 11 1 17 -2 13 -5z m892 -23 c-15 -5 -22 6 -14 19 6 9 10 9 16 -1 5 -8 4
-15 -2 -18z m-1369 4 c0 -8 -7 -15 -15 -15 -26 0 -18 20 13 29 1 1 2 -6 2 -14z
m144 -11 c9 -3 16 -12 16 -19 0 -10 -5 -11 -25 -2 -38 18 -31 36 9 21z m1266
-4 c0 -5 -4 -10 -10 -10 -5 0 -10 5 -10 10 0 6 5 10 10 10 6 0 10 -4 10 -10z
m-1380 -14 c0 -3 -4 -8 -10 -11 -5 -3 -10 -1 -10 4 0 6 5 11 10 11 6 0 10 -2
10 -4z m75 -16 c25 -11 -1 -11 -35 0 -20 6 -21 8 -5 8 11 0 29 -3 40 -8z m95
0 c0 -5 -4 -10 -10 -10 -5 0 -10 5 -10 10 0 6 5 10 10 10 6 0 10 -4 10 -10z
m-1937 -33 c-45 -71 -59 -86 -75 -81 -13 4 -24 -5 -39 -31 -22 -36 -47 -43
-41 -11 3 14 0 16 -17 7 -24 -13 -34 -14 -27 -2 3 5 22 16 41 25 20 10 40 28
45 41 10 26 38 44 85 56 17 4 31 7 33 8 2 1 -1 -5 -5 -12z m1889 -49 c-7 -7
-12 -8 -12 -2 0 14 12 26 19 19 2 -3 -1 -11 -7 -17z m-4395 -12 c-14 -11 -15
-15 -4 -25 8 -6 17 -8 20 -4 4 3 7 1 7 -5 0 -17 -16 -15 -34 3 -18 18 -11 45
13 45 14 -1 14 -2 -2 -14z m6053 4 c0 -5 -4 -10 -9 -10 -6 0 -13 5 -16 10 -3
6 1 10 9 10 9 0 16 -4 16 -10z m-163 -6 c-3 -3 -12 -4 -19 -1 -8 3 -5 6 6 6
11 1 17 -2 13 -5z m-1957 -14 c0 -5 -4 -10 -9 -10 -6 0 -13 5 -16 10 -3 6 1
10 9 10 9 0 16 -4 16 -10z m-2858 -22 c-6 -7 -9 -32 -8 -55 1 -25 -2 -43 -8
-43 -6 0 -12 22 -14 49 -2 40 1 50 15 54 10 3 20 5 22 6 2 0 -1 -5 -7 -11z
m3255 -18 c-1 -11 -7 -22 -14 -25 -10 -3 -11 0 -4 14 6 10 7 21 4 25 -3 3 -1
6 5 6 6 0 10 -9 9 -20z m38 0 c3 -5 1 -10 -4 -10 -6 0 -11 5 -11 10 0 6 2 10
4 10 3 0 8 -4 11 -10z m-2075 -4 c0 -2 -7 -6 -15 -10 -8 -3 -15 -1 -15 4 0 6
7 10 15 10 8 0 15 -2 15 -4z m-2170 -16 c0 -5 -5 -10 -11 -10 -5 0 -7 5 -4 10
3 6 8 10 11 10 2 0 4 -4 4 -10z m2110 -23 c0 -7 -4 -7 -12 1 -19 19 -32 14
-46 -18 -16 -35 -27 -38 -42 -10 -10 19 -9 20 14 14 20 -5 26 -2 26 9 0 22 31
38 47 25 7 -6 13 -15 13 -21z m-2126 -32 c3 -9 0 -15 -9 -15 -18 0 -18 -5 -5
-31 6 -10 8 -19 6 -19 -12 0 -27 42 -21 60 8 24 21 26 29 5z m40 -1 c5 -14 4
-15 -9 -4 -17 14 -19 20 -6 20 5 0 12 -7 15 -16z m61 -4 c-11 -5 -27 -9 -35
-9 -13 -1 -13 0 0 9 8 5 24 9 35 9 l20 0 -20 -9z m70 0 c-3 -5 1 -11 7 -13 10
-4 9 -8 -2 -16 -13 -9 -12 -11 5 -11 16 0 17 -2 5 -10 -9 -6 -18 -6 -24 0 -6
6 -19 10 -30 10 -21 1 -21 1 -2 15 11 8 14 15 8 15 -7 0 -12 4 -12 9 0 5 11 9
25 9 13 0 22 -4 20 -8z m1835 0 c0 -13 -28 -25 -38 -16 -3 4 0 11 8 16 20 13
30 12 30 0z m-1981 -31 c-22 -13 -31 -11 -17 5 7 8 17 12 22 9 4 -3 2 -9 -5
-14z m632 -3 c-7 -8 -27 -18 -44 -22 -29 -6 -84 -29 -97 -41 -2 -2 2 -8 10
-13 10 -6 22 -3 37 12 26 24 110 40 165 31 30 -4 36 -8 28 -18 -8 -10 -7 -16
6 -23 14 -8 11 -11 -20 -22 -36 -11 -78 -10 -140 6 -19 4 -31 2 -36 -6 -11
-18 -105 -14 -140 7 -27 15 -30 15 -57 -1 -26 -16 -26 -16 5 13 18 17 43 31
57 31 26 0 215 47 224 55 11 11 12 4 2 -9z m1274 4 c-3 -5 -12 -10 -18 -10 -7
0 -6 4 3 10 19 12 23 12 15 0z m4165 -50 c0 -5 -2 -10 -4 -10 -3 0 -8 5 -11
10 -3 6 -1 10 4 10 6 0 11 -4 11 -10z m-5800 -93 c0 -4 -9 -2 -19 5 -10 6 -17
18 -14 25 4 11 8 10 19 -4 7 -10 14 -21 14 -26z m995 -12 c0 -12 -8 -19 -22
-20 -25 -2 -33 29 -10 38 20 8 32 2 32 -18z m-1020 -6 c11 0 3 -6 -20 -13 -42
-13 -55 -6 -33 18 8 9 17 11 23 5 5 -5 18 -9 30 -10z m138 -41 c-2 -5 -3 -50
-3 -102 l0 -94 -29 -10 c-16 -6 -32 -8 -35 -5 -9 9 -7 208 1 217 9 9 69 3 66
-6z m907 -8 c19 -5 52 -11 73 -13 45 -5 53 -12 63 -50 l7 -29 -25 24 c-13 12
-23 26 -21 31 5 10 -9 9 -26 -2 -8 -5 -11 -16 -7 -26 5 -13 9 -15 20 -6 11 9
16 5 25 -20 6 -18 8 -30 5 -26 -4 3 -13 0 -21 -8 -19 -20 -38 -19 -59 3 -17
16 -18 16 -11 0 4 -13 1 -18 -9 -18 -9 0 -26 -8 -39 -18 -15 -12 -37 -18 -65
-16 -30 1 -43 -2 -47 -14 -6 -13 -8 -13 -14 4 -14 36 -9 78 14 113 13 20 32
49 41 64 14 23 23 27 39 22 12 -3 38 -10 57 -15z m2418 -80 c7 0 10 -5 7 -10
-6 -10 -71 -11 -89 -2 -15 8 26 22 49 17 11 -3 26 -5 33 -5z m-1894 -18 c2 -4
1 -35 -3 -70 -4 -34 -4 -62 0 -62 4 0 9 -9 12 -21 3 -12 10 -18 17 -14 26 16
103 -29 83 -49 -11 -10 -12 -55 -2 -61 5 -4 9 -26 9 -49 l0 -43 112 -2 c217
-2 452 -37 537 -81 41 -20 41 -20 41 -80 0 -126 -31 -426 -50 -491 -45 -149
-189 -239 -424 -264 -41 -5 -55 -10 -45 -16 8 -5 31 -7 51 -3 20 3 47 3 58 -1
22 -7 21 -7 -3 -20 -13 -7 -35 -11 -48 -10 -13 1 -55 6 -93 10 l-70 7 25 19
c20 15 21 19 7 19 -10 0 -18 -5 -18 -11 0 -7 -7 -8 -17 -4 -10 4 -47 18 -83
30 -116 40 -178 73 -223 117 -56 56 -77 117 -77 219 l0 78 -32 -10 c-43 -12
-107 -9 -140 8 -15 7 -43 13 -63 13 -38 0 -95 31 -131 71 -34 37 -48 124 -34
214 14 89 5 169 -17 161 -45 -18 -62 -17 -82 3 -28 28 -27 56 3 86 24 24 56
102 56 137 0 10 5 18 10 18 6 0 10 9 10 19 0 10 7 21 15 25 12 4 14 0 10 -17
-12 -49 -21 -168 -12 -174 14 -8 15 -2 19 92 3 87 4 90 28 93 14 2 37 15 51
28 20 19 40 26 90 30 35 2 69 7 76 9 7 2 15 -5 18 -16 8 -23 11 -23 66 -3 24
9 76 25 114 35 39 11 84 24 100 28 41 12 43 12 49 3z m1983 -4 c15 -6 36 -10
45 -9 11 1 16 -5 15 -18 -1 -12 -7 -21 -14 -21 -21 0 -63 23 -57 31 7 12 -10
11 -22 -1 -7 -7 -17 -5 -30 4 -18 14 -18 15 5 9 17 -4 22 -3 17 5 -9 15 5 15
41 0z m990 6 c-3 -3 -12 -4 -19 -1 -8 3 -5 6 6 6 11 1 17 -2 13 -5z m62 -18
c6 -7 8 -26 5 -44 -6 -29 -4 -32 42 -54 37 -18 50 -30 57 -54 8 -28 15 -33 66
-44 240 -53 471 -182 471 -264 0 -43 -63 -347 -91 -442 -19 -64 -32 -87 -69
-125 -60 -63 -128 -84 -265 -84 -90 0 -112 4 -211 38 -61 21 -137 56 -170 78
l-59 39 -6 -69 c-11 -119 -33 -156 -127 -220 -75 -52 -224 -65 -411 -36 -119
18 -194 51 -260 115 -79 77 -85 101 -89 371 l-4 236 28 22 c62 49 238 73 434
59 83 -5 226 -29 264 -44 11 -4 36 100 41 173 1 13 4 26 8 29 4 4 10 29 13 55
4 27 14 55 25 65 17 16 22 15 83 -11 53 -23 68 -25 81 -15 13 11 13 15 0 41
-24 46 -19 87 15 120 24 25 33 28 49 19 11 -5 29 -10 41 -10 l22 0 -23 18
c-14 12 -20 25 -16 35 8 20 40 22 56 3z m-939 -13 c0 -5 -5 -15 -10 -23 -8
-12 -10 -11 -10 8 0 12 5 22 10 22 6 0 10 -3 10 -7z m-2743 -105 c-3 -8 -6 -5
-6 6 -1 11 2 17 5 13 3 -3 4 -12 1 -19z m-1274 -229 c4 -14 11 -20 21 -16 10
4 13 1 10 -7 -7 -19 -54 4 -54 27 0 24 17 21 23 -4z m302 -100 c10 -30 0 -33
-13 -4 -6 14 -7 25 -2 25 5 0 12 -9 15 -21z m-205 -12 c0 -16 -6 -23 -20 -23
-24 0 -24 0 -8 26 17 26 28 25 28 -3z m76 -3 c-20 -19 -13 -32 7 -16 8 7 17 9
20 5 4 -3 9 2 13 11 7 18 24 12 24 -9 0 -7 -10 -17 -21 -20 -15 -5 -18 -10 -9
-15 25 -16 -27 -17 -63 -1 -38 16 -48 31 -22 31 8 0 15 3 15 8 0 8 42 30 49
25 2 -1 -4 -10 -13 -19z m94 7 c0 -6 -4 -13 -10 -16 -5 -3 -10 1 -10 9 0 9 5
16 10 16 6 0 10 -4 10 -9z m968 -39 c0 -9 3 -32 7 -49 5 -22 4 -33 -4 -33 -6
0 -11 6 -12 13 0 6 -3 31 -5 55 -3 26 -1 41 5 37 5 -3 10 -13 9 -23z m69 -24
c-3 -8 -6 -5 -6 6 -1 11 2 17 5 13 3 -3 4 -12 1 -19z m-87 -48 c0 -5 -2 -10
-4 -10 -3 0 -8 5 -11 10 -3 6 -1 10 4 10 6 0 11 -4 11 -10z m15 -50 c3 -5 1
-10 -4 -10 -6 0 -11 5 -11 10 0 6 2 10 4 10 3 0 8 -4 11 -10z m2159 -15 c102
-18 175 -44 222 -80 34 -26 34 -26 34 -108 0 -132 -19 -314 -35 -354 -20 -47
-50 -80 -95 -103 -51 -25 -198 -34 -316 -19 -114 15 -181 49 -229 117 -27 40
-30 52 -34 135 -4 101 16 332 30 359 12 23 60 47 112 58 69 13 219 11 311 -5z
m-593 -28 l-23 -22 17 28 c10 15 20 25 23 22 3 -3 -5 -16 -17 -28z m69 -7 c-8
-5 -19 -10 -25 -10 -5 0 -3 5 5 10 8 5 20 10 25 10 6 0 3 -5 -5 -10z m-1655
-20 c3 -5 -1 -10 -9 -10 -9 0 -16 5 -16 10 0 6 4 10 9 10 6 0 13 -4 16 -10z
m70 -30 c4 -6 10 -8 15 -5 4 3 10 -2 14 -10 7 -20 -4 -19 -34 5 -14 11 -20 20
-13 20 6 0 15 -5 18 -10z m-431 -36 c4 -10 1 -14 -6 -12 -15 5 -23 28 -10 28
5 0 13 -7 16 -16z m-816 -30 c-3 -14 -5 -12 -10 9 -3 19 -2 25 4 19 6 -6 8
-18 6 -28z m452 11 c14 -16 10 -18 -14 -9 -9 3 -16 10 -16 15 0 14 16 11 30
-6z m414 -37 c-5 -8 -10 -6 -15 8 -14 35 -10 50 7 26 8 -12 12 -27 8 -34z
m-550 23 c3 -5 -1 -11 -9 -15 -9 -3 -15 0 -15 9 0 16 16 20 24 6z m479 -30 c3
-13 -1 -21 -13 -24 -14 -4 -15 -1 -6 19 13 29 12 29 19 5z m-558 -7 c12 -13
19 -14 28 -5 21 21 28 11 11 -18 -10 -17 -21 -28 -25 -25 -4 2 -12 -3 -17 -13
-9 -16 -11 -16 -27 0 -20 21 -32 23 -16 3 8 -10 9 -16 1 -21 -6 -3 -8 -9 -6
-13 2 -4 -16 -8 -40 -10 -36 -2 -43 0 -38 13 4 10 -2 18 -17 23 -15 6 -18 11
-11 16 7 4 10 12 7 17 -4 5 -1 9 4 9 6 0 11 -9 11 -19 0 -10 7 -22 16 -25 8
-3 12 -2 9 4 -3 6 -1 10 4 10 6 0 11 7 11 15 0 8 7 15 15 15 8 0 15 7 15 15 0
18 16 20 23 3 3 -9 7 -7 12 5 9 21 10 21 30 1z m-174 -7 c-6 -8 -7 -17 -3 -21
8 -8 -25 -36 -44 -36 -6 0 3 16 20 35 29 33 51 50 27 22z m383 -42 c-4 -8 -13
-15 -21 -15 -13 0 -13 3 -3 15 7 8 16 15 21 15 5 0 6 -7 3 -15z m-64 -25 c0
-12 -8 -12 -35 0 -18 8 -17 9 8 9 15 1 27 -3 27 -9z m-335 -30 c3 -5 1 -10 -4
-10 -6 0 -11 5 -11 10 0 6 2 10 4 10 3 0 8 -4 11 -10z m45 -14 c0 -3 -4 -8
-10 -11 -5 -3 -10 -1 -10 4 0 6 5 11 10 11 6 0 10 -2 10 -4z m325 -16 c-3 -5
-11 -10 -16 -10 -6 0 -7 5 -4 10 3 6 11 10 16 10 6 0 7 -4 4 -10z m715 -10 c0
-5 -2 -10 -4 -10 -3 0 -8 5 -11 10 -3 6 -1 10 4 10 6 0 11 -4 11 -10z m-40
-65 c0 -5 -5 -3 -10 5 -5 8 -10 20 -10 25 0 6 5 3 10 -5 5 -8 10 -19 10 -25z
m270 31 c0 -2 -7 -6 -15 -10 -8 -3 -15 -1 -15 4 0 6 7 10 15 10 8 0 15 -2 15
-4z m-1020 -66 c0 -5 -4 -10 -10 -10 -5 0 -10 5 -10 10 0 6 5 10 10 10 6 0 10
-4 10 -10z m1328 -11 c2 -13 -10 -17 -60 -22 -35 -4 -81 -10 -103 -13 -38 -6
-39 -6 -23 11 18 19 116 45 158 42 14 -1 26 -9 28 -18z m-378 1 c12 -8 9 -10
-13 -10 -16 0 -26 4 -22 10 8 12 16 12 35 0z m-1003 -30 c23 0 23 0 4 -19 -22
-22 -37 -22 -70 1 l-25 17 25 10 c14 5 28 5 34 0 5 -5 19 -9 32 -9z m5643 16
c0 -3 -4 -8 -10 -11 -5 -3 -10 -1 -10 4 0 6 5 11 10 11 6 0 10 -2 10 -4z
m-4316 -35 c11 -18 -59 -49 -124 -55 l-65 -7 35 22 c65 41 141 61 154 40z m46
-31 c0 -5 -2 -10 -4 -10 -3 0 -8 5 -11 10 -3 6 -1 10 4 10 6 0 11 -4 11 -10z
m-1120 -195 c-7 -9 -15 -13 -17 -11 -6 6 20 36 26 30 2 -2 -2 -10 -9 -19z
m850 15 c0 -5 -5 -10 -11 -10 -5 0 -7 5 -4 10 3 6 8 10 11 10 2 0 4 -4 4 -10z
m-1290 -54 c0 -3 -4 -8 -10 -11 -5 -3 -10 -1 -10 4 0 6 5 11 10 11 6 0 10 -2
10 -4z m1173 -31 c-3 -9 -8 -14 -10 -11 -3 3 -2 9 2 15 9 16 15 13 8 -4z
m-486 -35 c-1 -22 -17 -28 -17 -7 0 12 9 27 16 27 2 0 2 -9 1 -20z m247 -15
c16 -24 16 -25 -6 -25 -17 0 -19 3 -9 9 9 6 10 11 2 15 -10 7 -16 26 -7 26 2
0 11 -11 20 -25z m106 4 c0 -6 -4 -7 -10 -4 -5 3 -10 11 -10 16 0 6 5 7 10 4
6 -3 10 -11 10 -16z m5150 -9 c0 -5 -2 -10 -4 -10 -3 0 -8 5 -11 10 -3 6 -1
10 4 10 6 0 11 -4 11 -10z m-5178 -36 c-6 -11 -11 -13 -16 -5 -4 6 -2 11 3 11
6 0 11 8 12 18 0 9 3 12 5 5 3 -7 1 -20 -4 -29z m-900 -19 c-9 -11 -17 -21
-18 -22 0 -2 -9 4 -20 12 -19 15 -19 15 1 13 13 -2 23 5 30 19 6 15 12 18 17
10 4 -6 -1 -21 -10 -32z m1104 8 c-10 -10 -19 5 -10 18 6 11 8 11 12 0 2 -7 1
-15 -2 -18z m-1216 -3 c8 -16 8 -18 -4 -14 -17 6 -30 34 -16 34 5 0 14 -9 20
-20z m220 10 c0 -5 -5 -10 -11 -10 -5 0 -7 5 -4 10 3 6 8 10 11 10 2 0 4 -4 4
-10z m50 6 c0 -3 -4 -8 -10 -11 -5 -3 -10 -1 -10 4 0 6 5 11 10 11 6 0 10 -2
10 -4z m570 0 c0 -2 -7 -6 -15 -10 -8 -3 -15 -1 -15 4 0 6 7 10 15 10 8 0 15
-2 15 -4z m-660 -37 c0 -10 -3 -19 -7 -19 -5 0 -8 11 -8 24 0 13 3 22 8 19 4
-2 7 -13 7 -24z m610 -5 c0 -8 -5 -12 -10 -9 -6 4 -8 11 -5 16 9 14 15 11 15
-7z m-763 -16 c-3 -8 -6 -5 -6 6 -1 11 2 17 5 13 3 -3 4 -12 1 -19z m733 -10
c0 -5 -4 -8 -10 -8 -5 0 -10 10 -10 23 0 18 2 19 10 7 5 -8 10 -18 10 -22z
m235 22 c3 -5 1 -10 -4 -10 -6 0 -11 5 -11 10 0 6 2 10 4 10 3 0 8 -4 11 -10z
m245 0 c0 -5 -2 -10 -4 -10 -3 0 -8 5 -11 10 -3 6 -1 10 4 10 6 0 11 -4 11
-10z m-940 -14 c0 -2 -8 -10 -17 -17 -16 -13 -17 -12 -4 4 13 16 21 21 21 13z
m-120 -10 c0 -3 -4 -8 -10 -11 -5 -3 -10 -1 -10 4 0 6 5 11 10 11 6 0 10 -2
10 -4z"/>
<path d="M3456 4495 c4 -8 8 -15 10 -15 2 0 4 7 4 15 0 8 -4 15 -10 15 -5 0
-7 -7 -4 -15z"/>
<path d="M3150 4380 c0 -5 5 -10 10 -10 6 0 10 5 10 10 0 6 -4 10 -10 10 -5 0
-10 -4 -10 -10z"/>
<path d="M3850 4330 c-11 -20 -10 -22 3 -17 9 3 18 1 20 -6 2 -7 6 -10 9 -7 3
3 -1 16 -8 29 l-12 23 -12 -22z"/>
<path d="M3681 4304 c0 -11 3 -14 6 -6 3 7 2 16 -1 19 -3 4 -6 -2 -5 -13z"/>
<path d="M3705 4310 c3 -5 8 -10 11 -10 2 0 4 5 4 10 0 6 -5 10 -11 10 -5 0
-7 -4 -4 -10z"/>
<path d="M3217 4289 c7 -7 15 -10 18 -7 3 3 -2 9 -12 12 -14 6 -15 5 -6 -5z"/>
<path d="M3386 4275 c4 -8 10 -12 15 -9 14 8 10 24 -6 24 -9 0 -12 -6 -9 -15z"/>
<path d="M3160 4270 c0 -5 5 -10 10 -10 6 0 10 5 10 10 0 6 -4 10 -10 10 -5 0
-10 -4 -10 -10z"/>
<path d="M3437 4233 c3 -7 0 -13 -6 -13 -6 0 -11 5 -11 10 0 6 -7 10 -15 10
-8 0 -15 -7 -15 -15 0 -8 5 -15 11 -15 6 0 9 -6 6 -12 -2 -7 -1 -22 4 -33 7
-18 8 -17 8 6 1 37 26 57 52 41 12 -8 26 -9 35 -4 12 7 6 12 -29 24 -36 12
-44 12 -40 1z"/>
<path d="M4026 4241 c-3 -5 1 -11 9 -15 9 -3 15 0 15 9 0 16 -16 20 -24 6z"/>
<path d="M3436 4165 c-3 -8 -1 -15 4 -15 6 0 10 7 10 15 0 8 -2 15 -4 15 -2 0
-6 -7 -10 -15z"/>
<path d="M3485 4170 c-3 -5 -1 -10 4 -10 6 0 11 5 11 10 0 6 -2 10 -4 10 -3 0
-8 -4 -11 -10z"/>
<path d="M3295 4121 c-3 -5 0 -13 6 -17 8 -5 8 -9 -1 -14 -7 -4 -10 -15 -8
-25 3 -16 7 -15 36 10 l33 27 -27 14 c-31 17 -31 17 -39 5z"/>
<path d="M4062 2951 c-11 -22 -10 -28 5 -38 22 -17 32 -16 39 2 4 8 15 13 28
12 11 -2 6 1 -12 7 -19 6 -31 15 -28 22 10 25 -20 21 -32 -5z"/>
<path d="M4138 2873 c7 -3 16 -2 19 1 4 3 -2 6 -13 5 -11 0 -14 -3 -6 -6z"/>
<path d="M1377 4533 c-11 -10 -8 -20 8 -27 10 -4 15 1 15 14 0 20 -11 26 -23
13z"/>
<path d="M1630 4511 c0 -5 5 -13 10 -16 6 -3 10 -2 10 4 0 5 -4 13 -10 16 -5
3 -10 2 -10 -4z"/>
<path d="M4805 4160 c3 -5 8 -10 11 -10 2 0 4 5 4 10 0 6 -5 10 -11 10 -5 0
-7 -4 -4 -10z"/>
<path d="M2153 4285 c-10 -10 -9 -15 4 -19 21 -8 27 -1 16 17 -6 12 -10 13
-20 2z"/>
<path d="M1903 4255 c-6 -15 -7 -27 -2 -31 11 -6 22 19 17 40 -2 11 -6 9 -15
-9z"/>
<path d="M2225 4234 c-11 -69 -11 -88 0 -96 6 -4 0 -8 -12 -8 -11 0 -33 14
-46 30 -14 17 -28 30 -31 30 -13 0 -5 -24 12 -36 15 -12 14 -13 -16 -14 -51 0
-28 -20 26 -21 26 -1 38 -4 27 -6 -11 -3 -23 -10 -27 -17 -6 -8 -8 -7 -8 2 0
7 -8 12 -17 11 -46 -4 -73 2 -73 16 0 8 5 15 10 15 18 0 11 20 -7 20 -17 1
-17 1 0 14 21 16 22 27 2 20 -11 -5 -15 1 -15 24 0 17 -4 34 -10 37 -5 3 -10
-1 -10 -9 0 -9 -4 -16 -10 -16 -9 0 -14 14 -11 33 0 4 -4 7 -10 7 -6 0 -9 -6
-7 -12 3 -7 -6 -21 -19 -31 -13 -10 -23 -23 -23 -29 0 -7 4 -7 13 0 16 13 43
10 60 -7 9 -11 9 -14 0 -18 -20 -7 -15 -23 7 -23 11 0 20 -4 20 -10 0 -15 -26
-12 -39 4 -8 10 -24 12 -51 9 -26 -4 -40 -2 -40 6 0 6 7 11 16 11 11 0 13 6 9
19 -4 13 1 27 14 40 17 17 18 21 5 21 -8 0 -22 -17 -31 -37 -12 -27 -18 -33
-21 -20 -2 9 -10 17 -18 17 -18 0 -18 -10 0 -24 22 -18 30 -56 12 -56 -9 0
-16 4 -16 10 0 5 -7 7 -16 3 -11 -4 -14 -1 -12 10 2 9 -1 17 -7 19 -5 2 -11
-6 -13 -18 -2 -16 5 -25 28 -34 24 -10 28 -16 19 -26 -13 -16 -2 -37 17 -30
20 8 18 -11 -3 -22 -11 -6 -14 -16 -9 -28 6 -16 8 -16 16 -4 12 19 50 22 50 4
0 -8 6 -14 13 -15 6 0 3 -4 -8 -8 -17 -7 -17 -8 8 -15 15 -3 27 -13 27 -20 0
-18 -27 -28 -33 -13 -3 7 -3 -1 -2 -18 2 -16 4 -35 4 -41 1 -7 10 -14 21 -17
13 -3 18 -1 13 6 -4 6 2 8 15 5 29 -8 38 9 18 31 -18 20 -21 40 -6 42 6 1 15
3 20 4 6 1 15 3 20 4 6 0 10 8 10 17 0 10 5 14 15 10 12 -4 14 0 9 19 -4 15
-2 25 4 25 6 0 17 3 25 6 8 3 22 -2 31 -11 14 -15 16 -15 16 -1 0 13 6 15 26
10 22 -6 25 -4 22 12 -2 11 -12 19 -22 19 -11 0 -21 6 -24 13 -3 10 5 12 34 7
37 -7 38 -6 19 9 -19 15 -19 15 10 14 17 -1 35 -4 40 -8 6 -3 17 -6 25 -5 8 1
21 3 29 3 8 1 11 5 7 9 -7 7 -12 8 -75 11 -25 2 -32 6 -27 17 3 8 1 15 -5 15
-6 0 -9 10 -7 23 2 14 9 21 21 20 12 -1 17 4 13 14 -3 8 -6 20 -6 27 0 7 -6
21 -14 31 -12 17 -14 14 -21 -31z m-235 -103 c0 -5 -6 -11 -12 -13 -10 -4 -8
-9 3 -21 9 -9 20 -13 24 -9 7 6 -3 -38 -10 -46 -7 -8 -58 24 -54 33 2 6 7 9
12 8 12 -5 8 11 -9 35 -15 21 -14 22 15 22 17 0 31 -4 31 -9z m93 -57 c4 -23
3 -24 -10 -11 -9 8 -12 20 -9 26 10 16 13 14 19 -15z m-38 -12 c-3 -3 -11 0
-18 7 -9 10 -8 11 6 5 10 -3 15 -9 12 -12z m110 8 c3 -5 1 -10 -4 -10 -6 0
-11 5 -11 10 0 6 2 10 4 10 3 0 8 -4 11 -10z m-155 -50 c0 -5 -2 -10 -4 -10
-3 0 -8 5 -11 10 -3 6 -1 10 4 10 6 0 11 -4 11 -10z m90 -6 c0 -10 -6 -14 -14
-11 -7 3 -19 0 -25 -6 -8 -8 -11 -7 -11 5 0 14 13 22 43 27 4 0 7 -6 7 -15z
m-60 -23 c0 -6 -9 -9 -19 -8 -11 0 -17 5 -15 9 7 11 34 10 34 -1z"/>
<path d="M2530 4266 c0 -2 7 -6 15 -10 8 -3 15 -1 15 4 0 6 -7 10 -15 10 -8 0
-15 -2 -15 -4z"/>
<path d="M2138 4227 c10 -12 19 -14 26 -7 5 5 18 10 27 10 10 0 20 4 23 8 3 5
-17 9 -44 8 -46 -1 -47 -2 -32 -19z"/>
<path d="M2295 4239 c-4 -6 -5 -12 -2 -15 2 -3 7 2 10 11 7 17 1 20 -8 4z"/>
<path d="M2490 4231 c-9 -18 -8 -18 20 -8 20 8 25 14 17 19 -18 12 -25 10 -37
-11z"/>
<path d="M2060 4236 c0 -2 8 -10 18 -17 15 -13 16 -12 3 4 -13 16 -21 21 -21
13z"/>
<path d="M2336 4225 c-8 -21 3 -45 20 -45 10 0 14 10 12 30 -2 31 -22 41 -32
15z"/>
<path d="M2582 4208 c-17 -17 -15 -33 6 -49 15 -13 16 -12 3 4 -11 14 -11 20
-1 32 16 19 8 29 -8 13z"/>
<path d="M2095 4180 c3 -5 8 -10 11 -10 2 0 4 5 4 10 0 6 -5 10 -11 10 -5 0
-7 -4 -4 -10z"/>
<path d="M1796 4155 c4 -8 8 -15 10 -15 2 0 4 7 4 15 0 8 -4 15 -10 15 -5 0
-7 -7 -4 -15z"/>
<path d="M2622 4158 c3 -7 22 -14 44 -15 35 -1 37 0 19 13 -24 18 -68 19 -63
2z"/>
<path d="M2484 4145 c1 -8 5 -18 9 -21 22 -22 -16 -36 -67 -24 -42 9 -74 -5
-33 -15 15 -4 27 -14 28 -24 0 -10 2 -11 6 -3 2 6 9 9 15 6 6 -4 14 0 19 7 7
11 9 10 9 -3 0 -10 4 -18 9 -18 5 0 7 -10 3 -22 -5 -19 -4 -20 10 -8 9 8 13
20 11 27 -3 7 8 23 24 37 24 21 25 24 8 23 -12 -1 -20 4 -20 13 -1 19 -14 40
-25 40 -4 0 -7 -7 -6 -15z"/>
<path d="M1690 4116 c0 -17 25 -15 42 2 9 9 6 12 -15 12 -17 0 -27 -5 -27 -14z"/>
<path d="M1450 4112 c0 -6 6 -15 13 -19 8 -4 19 -17 25 -28 11 -18 12 -17 10
13 -1 17 -5 32 -9 32 -4 0 -14 3 -23 6 -9 3 -16 1 -16 -4z"/>
<path d="M1724 4085 c-18 -14 -18 -14 4 -8 13 3 22 1 22 -6 0 -8 4 -8 14 1 29
27 -6 38 -40 13z"/>
<path d="M2267 4073 c-10 -9 -9 -41 2 -47 11 -7 21 28 12 43 -4 6 -10 8 -14 4z"/>
<path d="M1837 4064 c-4 -4 -7 -18 -7 -30 0 -23 0 -23 30 -6 29 17 39 32 21
32 -5 0 -16 2 -23 5 -8 3 -17 2 -21 -1z"/>
<path d="M1800 4045 c0 -8 5 -15 10 -15 6 0 10 7 10 15 0 8 -4 15 -10 15 -5 0
-10 -7 -10 -15z"/>
<path d="M2385 4040 c3 -5 11 -10 16 -10 6 0 7 5 4 10 -3 6 -11 10 -16 10 -6
0 -7 -4 -4 -10z"/>
<path d="M1677 4026 c-6 -15 -1 -14 63 7 8 3 -1 6 -21 6 -23 1 -39 -4 -42 -13z"/>
<path d="M2310 4024 c0 -8 5 -12 10 -9 6 3 10 10 10 16 0 5 -4 9 -10 9 -5 0
-10 -7 -10 -16z"/>
<path d="M2440 4030 c0 -5 12 -21 27 -35 30 -27 26 -33 -7 -12 -17 10 -22 9
-30 -3 -6 -9 -6 -16 0 -18 6 -2 8 -8 4 -13 -3 -5 0 -9 5 -9 6 0 11 5 11 11 0
11 33 8 75 -7 12 -4 3 9 -22 34 -24 23 -43 46 -43 52 0 5 -4 10 -10 10 -5 0
-10 -4 -10 -10z"/>
<path d="M1851 4008 c0 -10 -7 -18 -13 -18 -8 -1 -6 -6 5 -14 10 -8 17 -18 16
-22 -1 -5 0 -38 1 -74 l3 -65 8 55 c4 30 10 70 13 88 4 23 2 32 -8 32 -8 0
-17 8 -19 18 -4 16 -5 16 -6 0z"/>
<path d="M2415 4010 c-3 -5 1 -10 10 -10 9 0 13 5 10 10 -3 6 -8 10 -10 10 -2
0 -7 -4 -10 -10z"/>
<path d="M2262 3995 c-21 -11 -27 -20 -19 -27 1 -2 13 5 26 14 30 21 25 29 -7
13z"/>
<path d="M2285 3969 c-4 -6 1 -16 11 -24 14 -10 21 -10 26 -2 5 8 0 13 -12 15
-11 2 -18 8 -15 13 4 5 4 9 1 9 -3 0 -8 -5 -11 -11z"/>
<path d="M1767 3956 c-4 -10 -1 -13 8 -9 8 3 12 9 9 14 -7 12 -11 11 -17 -5z"/>
<path d="M1787 3944 c-10 -13 -13 -24 -7 -24 5 0 10 6 10 13 0 9 3 8 9 -2 11
-17 20 -1 12 21 -5 14 -9 13 -24 -8z"/>
<path d="M2375 3872 c3 -21 1 -51 -5 -67 -7 -19 -8 -31 0 -39 7 -7 10 -5 10 7
0 9 4 17 10 17 5 0 7 -7 4 -15 -4 -8 -3 -15 0 -15 13 0 24 45 13 52 -7 4 -7
11 2 21 9 11 9 17 1 22 -9 5 -9 10 -1 18 19 19 12 37 -15 37 -24 0 -25 -2 -19
-38z"/>
<path d="M2086 3891 c-3 -5 1 -11 9 -14 9 -4 12 -1 8 9 -6 16 -10 17 -17 5z"/>
<path d="M2209 3883 c-13 -16 -12 -17 4 -4 9 7 17 15 17 17 0 8 -8 3 -21 -13z"/>
<path d="M2150 3844 c0 -8 5 -12 10 -9 6 3 10 10 10 16 0 5 -4 9 -10 9 -5 0
-10 -7 -10 -16z"/>
<path d="M2020 3825 c-16 -20 8 -31 27 -13 13 14 13 16 0 21 -9 3 -21 0 -27
-8z"/>
<path d="M1853 3755 c0 -27 2 -38 4 -22 2 15 2 37 0 50 -2 12 -4 0 -4 -28z"/>
<path d="M2302 3780 c0 -14 2 -19 5 -12 2 6 2 18 0 25 -3 6 -5 1 -5 -13z"/>
<path d="M2120 3749 c0 -11 5 -17 10 -14 6 3 10 13 10 21 0 8 -4 14 -10 14 -5
0 -10 -9 -10 -21z"/>
<path d="M2172 3740 c0 -14 2 -19 5 -12 2 6 2 18 0 25 -3 6 -5 1 -5 -13z"/>
<path d="M2293 3744 c10 -11 57 -13 57 -3 0 5 -14 9 -32 9 -17 0 -28 -3 -25
-6z"/>
<path d="M2797 4053 c-15 -14 -6 -41 15 -46 12 -4 24 -4 27 -2 2 3 -1 5 -7 5
-7 0 -12 11 -12 25 0 24 -10 32 -23 18z"/>
<path d="M5845 4050 c-3 -5 -1 -10 4 -10 6 0 11 5 11 10 0 6 -2 10 -4 10 -3 0
-8 -4 -11 -10z"/>
<path d="M884 3785 c0 -49 1 -71 3 -48 2 23 2 64 0 90 -2 26 -3 8 -3 -42z"/>
<path d="M2701 3814 c0 -11 3 -14 6 -6 3 7 2 16 -1 19 -3 4 -6 -2 -5 -13z"/>
<path d="M3090 3705 c13 -14 26 -25 28 -25 3 0 -5 11 -18 25 -13 14 -26 25
-28 25 -3 0 5 -11 18 -25z"/>
<path d="M3276 3477 c3 -10 9 -15 12 -12 3 3 0 11 -7 18 -10 9 -11 8 -5 -6z"/>
<path d="M2580 3544 c0 -5 7 -18 15 -28 8 -11 15 -16 15 -10 0 5 -7 18 -15 28
-8 11 -15 16 -15 10z"/>
<path d="M836 3118 c-8 -32 -7 -50 2 -44 8 5 16 66 8 66 -2 0 -6 -10 -10 -22z"/>
<path d="M2215 3129 c-11 -17 1 -21 15 -4 8 9 8 15 2 15 -6 0 -14 -5 -17 -11z"/>
<path d="M2390 3010 c-13 -8 -12 -10 3 -10 9 0 17 5 17 10 0 12 -1 12 -20 0z"/>
<path d="M2452 2962 c2 -11 13 -17 29 -18 15 -1 35 -4 45 -8 17 -6 17 -5 4 7
-8 8 -30 19 -48 25 -30 10 -33 9 -30 -6z"/>
<path d="M2338 2963 c7 -3 16 -2 19 1 4 3 -2 6 -13 5 -11 0 -14 -3 -6 -6z"/>
<path d="M2490 2926 c0 -9 5 -16 10 -16 6 0 10 4 10 9 0 6 -4 13 -10 16 -5 3
-10 -1 -10 -9z"/>
<path d="M2460 2880 c0 -5 5 -10 11 -10 5 0 7 5 4 10 -3 6 -8 10 -11 10 -2 0
-4 -4 -4 -10z"/>
<path d="M2040 2890 c-8 -5 -11 -10 -6 -10 5 0 3 -7 -5 -16 -10 -13 -10 -17 2
-24 10 -7 18 -2 27 17 15 28 5 47 -18 33z"/>
<path d="M3330 2677 c-24 -10 -23 -11 20 -16 25 -3 44 -9 43 -13 -2 -5 -3 -13
-3 -19 0 -6 -8 -8 -17 -5 -10 3 -31 2 -48 -2 l-30 -9 33 -17 c49 -25 72 -18
98 32 22 41 22 43 4 52 -24 13 -68 12 -100 -3z"/>
<path d="M3445 2510 c-4 -6 5 -10 20 -10 15 0 24 4 20 10 -3 6 -12 10 -20 10
-8 0 -17 -4 -20 -10z"/>
<path d="M2480 2130 c-6 -12 -9 -24 -7 -27 3 -2 11 5 17 17 6 12 9 24 7 27 -3
2 -11 -5 -17 -17z"/>
<path d="M1414 1665 c-11 -62 -2 -71 34 -32 15 16 19 26 11 34 -6 6 -12 19
-13 29 -6 38 -22 22 -32 -31z"/>
<path d="M1342 1620 c-19 -33 -20 -40 -7 -40 16 0 38 44 33 67 -2 7 -13 -5
-26 -27z"/>
<path d="M4950 1453 c0 -5 5 -15 10 -23 8 -12 10 -11 10 8 0 12 -4 22 -10 22
-5 0 -10 -3 -10 -7z"/>
<path d="M5020 1407 c0 -9 -8 -20 -17 -26 -17 -9 -17 -11 -2 -26 15 -15 17
-13 22 21 4 21 4 40 2 43 -3 2 -5 -3 -5 -12z"/>
<path d="M5075 1400 c-3 -5 -1 -10 4 -10 6 0 11 5 11 10 0 6 -2 10 -4 10 -3 0
-8 -4 -11 -10z"/>
<path d="M5117 1354 c-16 -21 -16 -24 -2 -24 16 0 30 22 23 39 -1 5 -11 -2
-21 -15z"/>
<path d="M4972 1322 c-10 -7 -8 -12 7 -26 18 -16 19 -16 19 9 0 27 -5 30 -26
17z"/>
<path d="M5068 1303 c7 -3 16 -2 19 1 4 3 -2 6 -13 5 -11 0 -14 -3 -6 -6z"/>
<path d="M3482 4789 c2 -6 7 -10 11 -10 4 1 16 1 27 1 11 0 20 5 20 10 0 6
-14 10 -31 10 -17 0 -29 -5 -27 -11z"/>
<path d="M4610 4789 c0 -5 5 -7 10 -4 6 3 10 8 10 11 0 2 -4 4 -10 4 -5 0 -10
-5 -10 -11z"/>
<path d="M3569 4772 c-1 -4 -1 -10 0 -14 0 -5 -7 -8 -16 -9 -14 0 -15 -2 -3
-6 8 -3 17 -9 20 -13 3 -4 13 2 22 15 17 22 16 23 -2 28 -11 3 -21 2 -21 -1z"/>
<path d="M72 4606 c7 -8 17 -12 22 -9 4 3 2 9 -5 14 -22 13 -31 11 -17 -5z"/>
<path d="M300 4605 c7 -8 16 -12 21 -9 13 8 1 24 -18 24 -13 0 -13 -3 -3 -15z"/>
<path d="M170 4566 c0 -2 8 -10 18 -17 15 -13 16 -12 3 4 -13 16 -21 21 -21
13z"/>
<path d="M42 4496 c7 -8 15 -12 17 -11 5 6 -10 25 -20 25 -5 0 -4 -6 3 -14z"/>
<path d="M20 4471 c0 -5 7 -14 15 -21 12 -10 15 -10 15 3 0 8 -7 17 -15 21 -8
3 -15 2 -15 -3z"/>
<path d="M190 4466 c0 -9 30 -14 35 -6 4 6 -3 10 -14 10 -12 0 -21 -2 -21 -4z"/>
<path d="M89 4444 c-12 -15 -11 -16 11 -9 35 10 49 25 23 25 -11 0 -27 -7 -34
-16z"/>
<path d="M433 3760 c0 -25 2 -35 4 -22 2 12 2 32 0 45 -2 12 -4 2 -4 -23z"/>
<path d="M419 3618 c0 -13 -4 -49 -8 -81 -4 -31 -4 -54 0 -50 8 10 22 153 15
153 -3 0 -6 -10 -7 -22z"/>
<path d="M401 3434 c0 -11 3 -14 6 -6 3 7 2 16 -1 19 -3 4 -6 -2 -5 -13z"/>
<path d="M0 2732 c0 -33 4 -51 10 -47 13 8 13 65 0 85 -7 11 -10 0 -10 -38z"/>
<path d="M36 2758 c-3 -13 -5 -34 -5 -48 0 -23 1 -23 8 -5 5 11 7 23 4 28 -2
4 1 7 8 7 7 0 9 -10 6 -30 -6 -25 -3 -30 13 -30 11 0 20 -5 20 -12 0 -6 3 -8
6 -5 4 4 1 13 -5 21 -9 10 -9 20 -2 33 6 12 6 25 0 34 -7 12 -9 12 -10 -1 0
-9 -4 -7 -11 8 -6 12 -14 22 -18 22 -4 0 -10 -10 -14 -22z"/>
<path d="M338 2453 c7 -3 16 -2 19 1 4 3 -2 6 -13 5 -11 0 -14 -3 -6 -6z"/>
<path d="M455 2450 c45 -12 97 -12 90 0 -3 6 -32 9 -63 9 -47 -1 -52 -3 -27
-9z"/>
<path d="M588 2443 c18 -2 45 -2 60 0 15 2 0 4 -33 4 -33 0 -45 -2 -27 -4z"/>
<path d="M728 2443 c6 -2 18 -2 25 0 6 3 1 5 -13 5 -14 0 -19 -2 -12 -5z"/>
<path d="M1400 2440 c20 -13 53 -13 45 0 -3 6 -18 10 -33 10 -21 0 -24 -2 -12
-10z"/>
<path d="M1511 2441 c-10 -6 -9 -10 3 -14 8 -3 18 -2 21 3 8 13 -9 20 -24 11z"/>
<path d="M808 2433 c17 -2 47 -2 65 0 17 2 3 4 -33 4 -36 0 -50 -2 -32 -4z"/>
<path d="M1175 2431 l-60 -6 64 -7 c94 -11 242 -9 213 3 -33 13 -145 18 -217
10z"/>
<path d="M1453 2413 c9 -2 23 -2 30 0 6 3 -1 5 -18 5 -16 0 -22 -2 -12 -5z"/>
<path d="M380 2380 c-13 -8 -12 -10 3 -10 9 0 17 5 17 10 0 12 -1 12 -20 0z"/>
<path d="M0 994 c0 -14 3 -14 15 -4 19 16 19 20 0 20 -8 0 -15 -7 -15 -16z"/>
</g>
</svg>
