<svg width="600" height="205" viewBox="0 0 600 205" fill="none" xmlns="http://www.w3.org/2000/svg">
<mask id="path-1-outside-1_4_8" maskUnits="userSpaceOnUse" x="0.1875" y="0.203125" width="599" height="205" fill="black">
<rect fill="white" x="0.1875" y="0.203125" width="599" height="205"/>
<path d="M5.67969 140.363C4.83333 140.363 4.3125 139.68 4.11719 138.312C3.40104 132.193 2.84766 127.44 2.45703 124.055C2.06641 120.669 1.77344 118.13 1.57812 116.438C1.44792 114.745 1.35026 113.671 1.28516 113.215C1.28516 112.694 1.28516 112.336 1.28516 112.141C1.28516 111.424 1.61068 110.643 2.26172 109.797C2.91276 108.951 3.69401 108.527 4.60547 108.527C5.25651 108.527 5.9401 108.918 6.65625 109.699C7.4375 110.48 8.15365 111.392 8.80469 112.434C9.52083 113.475 10.1068 114.517 10.5625 115.559C11.0833 116.6 11.4089 117.349 11.5391 117.805C13.2318 121.385 15.0547 124.413 17.0078 126.887C19.026 129.296 21.3047 131.249 23.8438 132.746C26.3828 134.178 29.2474 135.22 32.4375 135.871C35.6276 136.522 39.2734 136.848 43.375 136.848C50.3411 136.848 55.7448 135.188 59.5859 131.867C63.4922 128.547 65.4453 123.208 65.4453 115.852C65.4453 111.62 64.5013 107.779 62.6133 104.328C60.7904 100.878 58.3815 97.6875 55.3867 94.7578C52.3919 91.763 48.974 88.931 45.1328 86.2617C41.2917 83.5924 37.3529 80.8906 33.3164 78.1562C29.2799 75.4219 25.3411 72.5898 21.5 69.6602C17.6589 66.6654 14.2409 63.3776 11.2461 59.7969C8.2513 56.2161 5.8099 52.2448 3.92188 47.8828C2.09896 43.5208 1.1875 38.6055 1.1875 33.1367C1.1875 29.8164 1.77344 26.724 2.94531 23.8594C4.18229 20.9948 5.8099 18.3906 7.82812 16.0469C9.84635 13.7031 12.1901 11.6198 14.8594 9.79688C17.5938 7.90885 20.4909 6.34635 23.5508 5.10938C26.6107 3.80729 29.7031 2.83073 32.8281 2.17969C36.0182 1.52865 39.1107 1.20312 42.1055 1.20312C44.5143 1.20312 46.9232 1.43099 49.332 1.88672C51.806 2.27734 54.2148 2.76562 56.5586 3.35156C58.9674 3.9375 61.3763 4.58854 63.7852 5.30469C66.194 5.95573 68.5703 6.57422 70.9141 7.16016L77.3594 6.57422C77.9453 6.57422 78.3034 6.83464 78.4336 7.35547C78.6289 7.8112 78.7591 8.23438 78.8242 8.625L81.6562 31.5742C81.6562 31.8997 81.2331 32.1276 80.3867 32.2578C79.5404 32.388 78.8893 32.4531 78.4336 32.4531C78.043 32.4531 77.457 32.4206 76.6758 32.3555C75.8945 32.2253 75.4388 32.0951 75.3086 31.9648C75.1133 31.7695 74.8529 31.3789 74.5273 30.793C74.2669 30.1419 73.974 29.4583 73.6484 28.7422C73.3229 27.9609 72.9648 27.1797 72.5742 26.3984C72.2487 25.6172 71.8906 24.9336 71.5 24.3477C68.375 19.5299 64.3711 15.9492 59.4883 13.6055C54.6055 11.1966 49.2344 9.99219 43.375 9.99219C40.8359 9.99219 38.4596 10.2852 36.2461 10.8711C34.0326 11.457 32.112 12.401 30.4844 13.7031C28.8568 14.9401 27.5547 16.5352 26.5781 18.4883C25.6667 20.4414 25.2109 22.7852 25.2109 25.5195C25.2109 29.4909 26.1224 33.1042 27.9453 36.3594C29.8333 39.5495 32.2747 42.5768 35.2695 45.4414C38.3294 48.2409 41.7799 50.9753 45.6211 53.6445C49.5273 56.3138 53.4661 59.0482 57.4375 61.8477C61.474 64.582 65.4128 67.5117 69.2539 70.6367C73.1602 73.7617 76.6107 77.2122 79.6055 80.9883C82.6654 84.7643 85.1068 88.9635 86.9297 93.5859C88.8177 98.2083 89.7617 103.417 89.7617 109.211C89.7617 113.052 89.0781 116.633 87.7109 119.953C86.4089 123.273 84.6185 126.301 82.3398 129.035C80.0612 131.704 77.3919 134.081 74.332 136.164C71.2721 138.247 67.9844 140.005 64.4688 141.438C61.0182 142.805 57.4375 143.846 53.7266 144.562C50.0807 145.279 46.5 145.637 42.9844 145.637C38.5573 145.637 34.6836 145.311 31.3633 144.66C28.1081 144.009 25.276 143.293 22.8672 142.512C20.5234 141.665 18.5378 140.917 16.9102 140.266C15.2826 139.615 13.9154 139.289 12.8086 139.289C12.418 139.289 12.125 139.322 11.9297 139.387L5.67969 140.363Z"/>
<path d="M105.973 97.3945C105.973 91.2747 107.307 85.4154 109.977 79.8164C112.711 74.2174 116.357 69.2695 120.914 64.9727C125.471 60.6758 130.777 57.2578 136.832 54.7188C142.887 52.1797 149.267 50.9102 155.973 50.9102C163.004 50.9102 169.677 52.1146 175.992 54.5234C182.307 56.9323 187.841 60.2526 192.594 64.4844C197.411 68.651 201.22 73.599 204.02 79.3281C206.819 84.9922 208.219 91.1445 208.219 97.7852C208.219 104.556 206.917 110.871 204.312 116.73C201.773 122.525 198.225 127.57 193.668 131.867C189.111 136.164 183.674 139.549 177.359 142.023C171.109 144.432 164.273 145.637 156.852 145.637C149.495 145.637 142.691 144.4 136.441 141.926C130.257 139.387 124.885 135.969 120.328 131.672C115.836 127.31 112.32 122.199 109.781 116.34C107.242 110.48 105.973 104.165 105.973 97.3945ZM130.973 91.2422C130.973 94.7578 131.233 98.4036 131.754 102.18C132.275 105.891 133.056 109.536 134.098 113.117C135.139 116.633 136.441 119.953 138.004 123.078C139.632 126.203 141.552 128.97 143.766 131.379C145.979 133.723 148.486 135.578 151.285 136.945C154.085 138.312 157.242 138.996 160.758 138.996C164.599 138.996 167.887 138.02 170.621 136.066C173.421 134.048 175.699 131.444 177.457 128.254C179.28 125.064 180.615 121.483 181.461 117.512C182.307 113.54 182.73 109.569 182.73 105.598C182.73 102.408 182.438 99.0547 181.852 95.5391C181.266 91.9583 180.387 88.4427 179.215 84.9922C178.043 81.4766 176.611 78.1237 174.918 74.9336C173.225 71.7435 171.24 68.944 168.961 66.5352C166.747 64.0612 164.241 62.1081 161.441 60.6758C158.707 59.2435 155.712 58.5273 152.457 58.5273C148.811 58.5273 145.621 59.5365 142.887 61.5547C140.217 63.5078 138.004 66.0794 136.246 69.2695C134.488 72.3945 133.154 75.9102 132.242 79.8164C131.396 83.6576 130.973 87.4661 130.973 91.2422Z"/>
<path d="M253.238 51.3008C253.499 51.1706 253.759 51.0404 254.02 50.9102C254.345 50.7799 254.573 50.7148 254.703 50.7148C255.81 50.7148 256.363 51.4961 256.363 53.0586V69.6602C256.363 69.8555 256.363 70.1159 256.363 70.4414C256.428 70.7018 256.624 70.832 256.949 70.832C257.275 70.832 257.535 70.7344 257.73 70.5391C257.926 70.2786 258.121 70.0508 258.316 69.8555C259.488 68.293 260.79 66.5677 262.223 64.6797C263.72 62.7266 265.283 60.9036 266.91 59.2109C268.603 57.5182 270.328 56.1185 272.086 55.0117C273.844 53.8398 275.569 53.2539 277.262 53.2539C278.434 53.2539 279.964 53.5794 281.852 54.2305C283.74 54.8815 285.562 55.6628 287.32 56.5742C289.143 57.4206 290.673 58.332 291.91 59.3086C293.212 60.2201 293.863 60.9688 293.863 61.5547C293.863 62.1406 293.57 63.2474 292.984 64.875C292.398 66.4375 291.65 68.0326 290.738 69.6602C289.892 71.2878 288.948 72.7526 287.906 74.0547C286.93 75.2917 286.018 75.9102 285.172 75.9102H284.977C283.805 75.5195 282.6 75.0638 281.363 74.543C280.191 73.957 278.987 73.4036 277.75 72.8828C276.513 72.2969 275.243 71.8411 273.941 71.5156C272.704 71.125 271.435 70.9297 270.133 70.9297C268.18 70.9297 266.357 71.3529 264.664 72.1992C262.971 72.9805 261.507 74.0221 260.27 75.3242C259.098 76.5612 258.154 77.9609 257.438 79.5234C256.721 81.0859 256.363 82.5833 256.363 84.0156V125.227C256.363 127.115 256.754 128.71 257.535 130.012C258.382 131.249 259.423 132.29 260.66 133.137C261.962 133.918 263.362 134.536 264.859 134.992C266.422 135.383 267.919 135.708 269.352 135.969C270.784 136.229 272.086 136.457 273.258 136.652C274.43 136.783 275.309 136.978 275.895 137.238C276.546 137.499 276.871 138.41 276.871 139.973C276.871 141.861 276.546 142.87 275.895 143H219.547C218.896 142.87 218.57 141.861 218.57 139.973C218.57 138.41 218.896 137.499 219.547 137.238C220.393 136.848 221.598 136.555 223.16 136.359C224.723 136.099 226.285 135.643 227.848 134.992C229.41 134.276 230.777 133.202 231.949 131.77C233.121 130.272 233.707 128.091 233.707 125.227V78.2539C233.707 76.6914 233.284 75.487 232.438 74.6406C231.591 73.7292 230.517 73.0456 229.215 72.5898C227.913 72.1341 226.513 71.776 225.016 71.5156C223.518 71.1901 222.086 70.832 220.719 70.4414C220.328 70.3112 220.003 70.1484 219.742 69.9531C219.547 69.6927 219.449 69.2044 219.449 68.4883C219.449 68.1628 219.547 67.8372 219.742 67.5117C219.938 67.1862 220.328 66.8607 220.914 66.5352L253.238 51.3008Z"/>
<path d="M341.52 141.047C339.371 142.544 336.832 143.716 333.902 144.562C330.973 145.409 328.043 145.832 325.113 145.832C317.171 145.832 311.116 144.042 306.949 140.461C302.848 136.88 300.797 132.03 300.797 125.91C300.797 122.395 301.578 119.367 303.141 116.828C304.768 114.289 307.145 112.043 310.27 110.09C313.395 108.137 317.236 106.379 321.793 104.816C326.415 103.189 331.754 101.594 337.809 100.031C341.064 99.1849 343.668 98.2734 345.621 97.2969C347.639 96.3203 349.495 95.3763 351.188 94.4648C352.294 93.8789 352.913 93.3581 353.043 92.9023C353.238 92.4466 353.336 92.0234 353.336 91.6328V74.6406C353.336 72.4922 353.01 70.5065 352.359 68.6836C351.773 66.7956 350.862 65.168 349.625 63.8008C348.388 62.4336 346.891 61.3594 345.133 60.5781C343.375 59.7969 341.389 59.4062 339.176 59.4062C337.288 59.4062 335.53 59.7318 333.902 60.3828C332.275 61.0339 330.875 61.9779 329.703 63.2148C328.531 64.4518 327.587 65.9167 326.871 67.6094C326.22 69.3021 325.895 71.2227 325.895 73.3711C325.895 73.5664 325.895 73.8594 325.895 74.25C325.96 74.6406 326.025 75.0638 326.09 75.5195C326.155 75.9102 326.22 76.2682 326.285 76.5938C326.35 76.9193 326.383 77.1146 326.383 77.1797C326.318 77.3099 325.764 77.5703 324.723 77.9609C323.746 78.3516 322.509 78.8073 321.012 79.3281C319.579 79.7839 317.984 80.2721 316.227 80.793C314.469 81.2487 312.776 81.7044 311.148 82.1602C309.586 82.6159 308.186 83.0391 306.949 83.4297C305.777 83.7552 304.964 83.9505 304.508 84.0156C303.792 84.0156 303.336 83.6576 303.141 82.9414C303.01 82.1602 302.945 81.4115 302.945 80.6953C302.945 76.9193 304.085 73.2409 306.363 69.6602C308.642 66.0794 311.669 62.9219 315.445 60.1875C319.286 57.388 323.681 55.1419 328.629 53.4492C333.577 51.7565 338.688 50.9102 343.961 50.9102C348.648 50.9102 352.848 51.5286 356.559 52.7656C360.27 53.9375 363.427 55.5977 366.031 57.7461C368.635 59.8294 370.621 62.2708 371.988 65.0703C373.355 67.8047 374.039 70.7344 374.039 73.8594V120.441C374.039 122.134 374.658 123.664 375.895 125.031C377.197 126.333 378.857 126.984 380.875 126.984C382.047 126.984 383.089 126.789 384 126.398C384.977 125.943 385.823 125.454 386.539 124.934C387.32 124.348 387.971 123.859 388.492 123.469C389.013 123.013 389.469 122.785 389.859 122.785C390.38 122.785 390.673 123.013 390.738 123.469C390.803 123.859 390.836 124.217 390.836 124.543C390.836 125.65 390.673 126.789 390.348 127.961C390.087 129.068 389.599 129.882 388.883 130.402C385.693 132.811 382.861 134.992 380.387 136.945C377.913 138.833 375.667 140.461 373.648 141.828C371.63 143.195 369.807 144.237 368.18 144.953C366.552 145.669 365.022 146.027 363.59 146.027C362.288 146.027 361.116 145.669 360.074 144.953C359.098 144.237 358.219 143.358 357.438 142.316C356.721 141.275 356.103 140.168 355.582 138.996C355.061 137.759 354.605 136.62 354.215 135.578C353.889 134.536 353.629 133.69 353.434 133.039C353.238 132.388 353.076 132.095 352.945 132.16L341.52 141.047ZM323.551 123.566C323.551 125.324 323.876 126.757 324.527 127.863C325.243 128.97 326.155 129.816 327.262 130.402C328.368 130.988 329.605 131.411 330.973 131.672C332.405 131.867 333.87 131.965 335.367 131.965C336.734 131.965 338.427 131.639 340.445 130.988C342.464 130.272 344.417 129.361 346.305 128.254C348.258 127.082 349.918 125.78 351.285 124.348C352.652 122.85 353.336 121.353 353.336 119.855V103.742C353.336 103.026 353.076 102.668 352.555 102.668C352.424 102.668 352.294 102.701 352.164 102.766L329.508 113.312C328.596 113.964 327.75 114.582 326.969 115.168C326.253 115.689 325.634 116.34 325.113 117.121C324.592 117.837 324.202 118.716 323.941 119.758C323.681 120.734 323.551 122.004 323.551 123.566Z"/>
<path d="M425.699 203.547C424.527 203.547 423.388 203.352 422.281 202.961C421.174 202.57 420.165 202.017 419.254 201.301C418.342 200.585 417.594 199.738 417.008 198.762C416.487 197.85 416.227 196.809 416.227 195.637C416.227 193.814 416.682 192.414 417.594 191.438C418.57 190.461 419.742 189.647 421.109 188.996C422.477 188.345 423.909 187.792 425.406 187.336C426.904 186.88 428.173 186.262 429.215 185.48C429.931 184.96 430.68 184.341 431.461 183.625C432.307 182.974 433.056 181.9 433.707 180.402L446.5 150.617L409.098 72.5898C407.991 69.5951 406.396 66.9909 404.312 64.7773C402.229 62.4987 399.69 60.8711 396.695 59.8945C396.24 59.7643 395.686 59.6341 395.035 59.5039C394.384 59.3086 393.766 59.0807 393.18 58.8203C392.529 58.5599 392.008 58.2344 391.617 57.8438C391.161 57.388 390.934 56.8021 390.934 56.0859C390.934 55.4349 391.129 54.7839 391.52 54.1328C391.91 53.4818 392.496 53.1562 393.277 53.1562H444.84C445.23 53.1562 445.458 53.5469 445.523 54.3281C445.589 55.1094 445.621 55.5977 445.621 55.793C445.621 56.7044 445.23 57.3555 444.449 57.7461C443.733 58.0716 442.822 58.2995 441.715 58.4297C440.608 58.5599 439.404 58.6576 438.102 58.7227C436.865 58.7878 435.693 59.0156 434.586 59.4062C433.479 59.7969 432.535 60.4154 431.754 61.2617C431.038 62.1081 430.68 63.3776 430.68 65.0703C430.68 65.2656 430.81 65.6888 431.07 66.3398C431.396 66.9258 431.559 67.2839 431.559 67.4141L455.777 119.27C455.908 119.595 456.135 120.083 456.461 120.734C456.852 121.32 457.275 121.613 457.73 121.613C457.991 121.613 458.251 121.483 458.512 121.223C458.772 120.897 459 120.539 459.195 120.148C459.391 119.758 459.553 119.4 459.684 119.074C459.814 118.684 459.911 118.423 459.977 118.293C462.971 110.611 465.478 104.1 467.496 98.7617C469.579 93.4232 471.272 88.9961 472.574 85.4805C473.941 81.9648 474.951 79.2305 475.602 77.2773C476.318 75.2591 476.806 73.7292 477.066 72.6875C477.392 71.5807 477.587 70.7995 477.652 70.3438C477.717 69.8229 477.75 69.3346 477.75 68.8789C477.88 66.6003 477.197 64.7122 475.699 63.2148C474.202 61.7174 472.411 60.6107 470.328 59.8945C469.742 59.6992 468.993 59.569 468.082 59.5039C467.236 59.3737 466.389 59.2109 465.543 59.0156C464.762 58.7552 464.046 58.3971 463.395 57.9414C462.809 57.4206 462.516 56.7044 462.516 55.793C462.516 55.2721 462.743 54.7188 463.199 54.1328C463.655 53.4818 464.143 53.1562 464.664 53.1562H503.629C504.15 53.1562 504.443 53.5469 504.508 54.3281C504.638 55.0443 504.703 55.5651 504.703 55.8906C504.703 56.3464 504.638 56.737 504.508 57.0625C504.378 57.388 504.052 57.681 503.531 57.9414C503.076 58.2018 502.392 58.4622 501.48 58.7227C500.634 58.9831 499.495 59.2435 498.062 59.5039C496.695 59.7643 495.458 60.4479 494.352 61.5547C493.245 62.5964 492.236 63.8333 491.324 65.2656C490.478 66.6328 489.697 68.0977 488.98 69.6602C488.329 71.2227 487.743 72.6224 487.223 73.8594L437.711 196.516C437.19 197.753 436.441 198.794 435.465 199.641C434.488 200.552 433.414 201.301 432.242 201.887C431.07 202.473 429.898 202.896 428.727 203.156C427.555 203.417 426.546 203.547 425.699 203.547Z"/>
<path d="M548.746 141.047C546.598 142.544 544.059 143.716 541.129 144.562C538.199 145.409 535.27 145.832 532.34 145.832C524.397 145.832 518.342 144.042 514.176 140.461C510.074 136.88 508.023 132.03 508.023 125.91C508.023 122.395 508.805 119.367 510.367 116.828C511.995 114.289 514.371 112.043 517.496 110.09C520.621 108.137 524.462 106.379 529.02 104.816C533.642 103.189 538.98 101.594 545.035 100.031C548.29 99.1849 550.895 98.2734 552.848 97.2969C554.866 96.3203 556.721 95.3763 558.414 94.4648C559.521 93.8789 560.139 93.3581 560.27 92.9023C560.465 92.4466 560.562 92.0234 560.562 91.6328V74.6406C560.562 72.4922 560.237 70.5065 559.586 68.6836C559 66.7956 558.089 65.168 556.852 63.8008C555.615 62.4336 554.117 61.3594 552.359 60.5781C550.602 59.7969 548.616 59.4062 546.402 59.4062C544.514 59.4062 542.757 59.7318 541.129 60.3828C539.501 61.0339 538.102 61.9779 536.93 63.2148C535.758 64.4518 534.814 65.9167 534.098 67.6094C533.447 69.3021 533.121 71.2227 533.121 73.3711C533.121 73.5664 533.121 73.8594 533.121 74.25C533.186 74.6406 533.251 75.0638 533.316 75.5195C533.382 75.9102 533.447 76.2682 533.512 76.5938C533.577 76.9193 533.609 77.1146 533.609 77.1797C533.544 77.3099 532.991 77.5703 531.949 77.9609C530.973 78.3516 529.736 78.8073 528.238 79.3281C526.806 79.7839 525.211 80.2721 523.453 80.793C521.695 81.2487 520.003 81.7044 518.375 82.1602C516.812 82.6159 515.413 83.0391 514.176 83.4297C513.004 83.7552 512.19 83.9505 511.734 84.0156C511.018 84.0156 510.562 83.6576 510.367 82.9414C510.237 82.1602 510.172 81.4115 510.172 80.6953C510.172 76.9193 511.311 73.2409 513.59 69.6602C515.868 66.0794 518.896 62.9219 522.672 60.1875C526.513 57.388 530.908 55.1419 535.855 53.4492C540.803 51.7565 545.914 50.9102 551.188 50.9102C555.875 50.9102 560.074 51.5286 563.785 52.7656C567.496 53.9375 570.654 55.5977 573.258 57.7461C575.862 59.8294 577.848 62.2708 579.215 65.0703C580.582 67.8047 581.266 70.7344 581.266 73.8594V120.441C581.266 122.134 581.884 123.664 583.121 125.031C584.423 126.333 586.083 126.984 588.102 126.984C589.273 126.984 590.315 126.789 591.227 126.398C592.203 125.943 593.049 125.454 593.766 124.934C594.547 124.348 595.198 123.859 595.719 123.469C596.24 123.013 596.695 122.785 597.086 122.785C597.607 122.785 597.9 123.013 597.965 123.469C598.03 123.859 598.062 124.217 598.062 124.543C598.062 125.65 597.9 126.789 597.574 127.961C597.314 129.068 596.826 129.882 596.109 130.402C592.919 132.811 590.087 134.992 587.613 136.945C585.139 138.833 582.893 140.461 580.875 141.828C578.857 143.195 577.034 144.237 575.406 144.953C573.779 145.669 572.249 146.027 570.816 146.027C569.514 146.027 568.342 145.669 567.301 144.953C566.324 144.237 565.445 143.358 564.664 142.316C563.948 141.275 563.329 140.168 562.809 138.996C562.288 137.759 561.832 136.62 561.441 135.578C561.116 134.536 560.855 133.69 560.66 133.039C560.465 132.388 560.302 132.095 560.172 132.16L548.746 141.047ZM530.777 123.566C530.777 125.324 531.103 126.757 531.754 127.863C532.47 128.97 533.382 129.816 534.488 130.402C535.595 130.988 536.832 131.411 538.199 131.672C539.632 131.867 541.096 131.965 542.594 131.965C543.961 131.965 545.654 131.639 547.672 130.988C549.69 130.272 551.643 129.361 553.531 128.254C555.484 127.082 557.145 125.78 558.512 124.348C559.879 122.85 560.562 121.353 560.562 119.855V103.742C560.562 103.026 560.302 102.668 559.781 102.668C559.651 102.668 559.521 102.701 559.391 102.766L536.734 113.312C535.823 113.964 534.977 114.582 534.195 115.168C533.479 115.689 532.861 116.34 532.34 117.121C531.819 117.837 531.428 118.716 531.168 119.758C530.908 120.734 530.777 122.004 530.777 123.566Z"/>
</mask>
<path d="M5.67969 140.363C4.83333 140.363 4.3125 139.68 4.11719 138.312C3.40104 132.193 2.84766 127.44 2.45703 124.055C2.06641 120.669 1.77344 118.13 1.57812 116.438C1.44792 114.745 1.35026 113.671 1.28516 113.215C1.28516 112.694 1.28516 112.336 1.28516 112.141C1.28516 111.424 1.61068 110.643 2.26172 109.797C2.91276 108.951 3.69401 108.527 4.60547 108.527C5.25651 108.527 5.9401 108.918 6.65625 109.699C7.4375 110.48 8.15365 111.392 8.80469 112.434C9.52083 113.475 10.1068 114.517 10.5625 115.559C11.0833 116.6 11.4089 117.349 11.5391 117.805C13.2318 121.385 15.0547 124.413 17.0078 126.887C19.026 129.296 21.3047 131.249 23.8438 132.746C26.3828 134.178 29.2474 135.22 32.4375 135.871C35.6276 136.522 39.2734 136.848 43.375 136.848C50.3411 136.848 55.7448 135.188 59.5859 131.867C63.4922 128.547 65.4453 123.208 65.4453 115.852C65.4453 111.62 64.5013 107.779 62.6133 104.328C60.7904 100.878 58.3815 97.6875 55.3867 94.7578C52.3919 91.763 48.974 88.931 45.1328 86.2617C41.2917 83.5924 37.3529 80.8906 33.3164 78.1562C29.2799 75.4219 25.3411 72.5898 21.5 69.6602C17.6589 66.6654 14.2409 63.3776 11.2461 59.7969C8.2513 56.2161 5.8099 52.2448 3.92188 47.8828C2.09896 43.5208 1.1875 38.6055 1.1875 33.1367C1.1875 29.8164 1.77344 26.724 2.94531 23.8594C4.18229 20.9948 5.8099 18.3906 7.82812 16.0469C9.84635 13.7031 12.1901 11.6198 14.8594 9.79688C17.5938 7.90885 20.4909 6.34635 23.5508 5.10938C26.6107 3.80729 29.7031 2.83073 32.8281 2.17969C36.0182 1.52865 39.1107 1.20312 42.1055 1.20312C44.5143 1.20312 46.9232 1.43099 49.332 1.88672C51.806 2.27734 54.2148 2.76562 56.5586 3.35156C58.9674 3.9375 61.3763 4.58854 63.7852 5.30469C66.194 5.95573 68.5703 6.57422 70.9141 7.16016L77.3594 6.57422C77.9453 6.57422 78.3034 6.83464 78.4336 7.35547C78.6289 7.8112 78.7591 8.23438 78.8242 8.625L81.6562 31.5742C81.6562 31.8997 81.2331 32.1276 80.3867 32.2578C79.5404 32.388 78.8893 32.4531 78.4336 32.4531C78.043 32.4531 77.457 32.4206 76.6758 32.3555C75.8945 32.2253 75.4388 32.0951 75.3086 31.9648C75.1133 31.7695 74.8529 31.3789 74.5273 30.793C74.2669 30.1419 73.974 29.4583 73.6484 28.7422C73.3229 27.9609 72.9648 27.1797 72.5742 26.3984C72.2487 25.6172 71.8906 24.9336 71.5 24.3477C68.375 19.5299 64.3711 15.9492 59.4883 13.6055C54.6055 11.1966 49.2344 9.99219 43.375 9.99219C40.8359 9.99219 38.4596 10.2852 36.2461 10.8711C34.0326 11.457 32.112 12.401 30.4844 13.7031C28.8568 14.9401 27.5547 16.5352 26.5781 18.4883C25.6667 20.4414 25.2109 22.7852 25.2109 25.5195C25.2109 29.4909 26.1224 33.1042 27.9453 36.3594C29.8333 39.5495 32.2747 42.5768 35.2695 45.4414C38.3294 48.2409 41.7799 50.9753 45.6211 53.6445C49.5273 56.3138 53.4661 59.0482 57.4375 61.8477C61.474 64.582 65.4128 67.5117 69.2539 70.6367C73.1602 73.7617 76.6107 77.2122 79.6055 80.9883C82.6654 84.7643 85.1068 88.9635 86.9297 93.5859C88.8177 98.2083 89.7617 103.417 89.7617 109.211C89.7617 113.052 89.0781 116.633 87.7109 119.953C86.4089 123.273 84.6185 126.301 82.3398 129.035C80.0612 131.704 77.3919 134.081 74.332 136.164C71.2721 138.247 67.9844 140.005 64.4688 141.438C61.0182 142.805 57.4375 143.846 53.7266 144.562C50.0807 145.279 46.5 145.637 42.9844 145.637C38.5573 145.637 34.6836 145.311 31.3633 144.66C28.1081 144.009 25.276 143.293 22.8672 142.512C20.5234 141.665 18.5378 140.917 16.9102 140.266C15.2826 139.615 13.9154 139.289 12.8086 139.289C12.418 139.289 12.125 139.322 11.9297 139.387L5.67969 140.363Z" stroke="white" stroke-width="2" mask="url(#path-1-outside-1_4_8)"/>
<path d="M105.973 97.3945C105.973 91.2747 107.307 85.4154 109.977 79.8164C112.711 74.2174 116.357 69.2695 120.914 64.9727C125.471 60.6758 130.777 57.2578 136.832 54.7188C142.887 52.1797 149.267 50.9102 155.973 50.9102C163.004 50.9102 169.677 52.1146 175.992 54.5234C182.307 56.9323 187.841 60.2526 192.594 64.4844C197.411 68.651 201.22 73.599 204.02 79.3281C206.819 84.9922 208.219 91.1445 208.219 97.7852C208.219 104.556 206.917 110.871 204.312 116.73C201.773 122.525 198.225 127.57 193.668 131.867C189.111 136.164 183.674 139.549 177.359 142.023C171.109 144.432 164.273 145.637 156.852 145.637C149.495 145.637 142.691 144.4 136.441 141.926C130.257 139.387 124.885 135.969 120.328 131.672C115.836 127.31 112.32 122.199 109.781 116.34C107.242 110.48 105.973 104.165 105.973 97.3945ZM130.973 91.2422C130.973 94.7578 131.233 98.4036 131.754 102.18C132.275 105.891 133.056 109.536 134.098 113.117C135.139 116.633 136.441 119.953 138.004 123.078C139.632 126.203 141.552 128.97 143.766 131.379C145.979 133.723 148.486 135.578 151.285 136.945C154.085 138.312 157.242 138.996 160.758 138.996C164.599 138.996 167.887 138.02 170.621 136.066C173.421 134.048 175.699 131.444 177.457 128.254C179.28 125.064 180.615 121.483 181.461 117.512C182.307 113.54 182.73 109.569 182.73 105.598C182.73 102.408 182.438 99.0547 181.852 95.5391C181.266 91.9583 180.387 88.4427 179.215 84.9922C178.043 81.4766 176.611 78.1237 174.918 74.9336C173.225 71.7435 171.24 68.944 168.961 66.5352C166.747 64.0612 164.241 62.1081 161.441 60.6758C158.707 59.2435 155.712 58.5273 152.457 58.5273C148.811 58.5273 145.621 59.5365 142.887 61.5547C140.217 63.5078 138.004 66.0794 136.246 69.2695C134.488 72.3945 133.154 75.9102 132.242 79.8164C131.396 83.6576 130.973 87.4661 130.973 91.2422Z" stroke="white" stroke-width="2" mask="url(#path-1-outside-1_4_8)"/>
<path d="M253.238 51.3008C253.499 51.1706 253.759 51.0404 254.02 50.9102C254.345 50.7799 254.573 50.7148 254.703 50.7148C255.81 50.7148 256.363 51.4961 256.363 53.0586V69.6602C256.363 69.8555 256.363 70.1159 256.363 70.4414C256.428 70.7018 256.624 70.832 256.949 70.832C257.275 70.832 257.535 70.7344 257.73 70.5391C257.926 70.2786 258.121 70.0508 258.316 69.8555C259.488 68.293 260.79 66.5677 262.223 64.6797C263.72 62.7266 265.283 60.9036 266.91 59.2109C268.603 57.5182 270.328 56.1185 272.086 55.0117C273.844 53.8398 275.569 53.2539 277.262 53.2539C278.434 53.2539 279.964 53.5794 281.852 54.2305C283.74 54.8815 285.562 55.6628 287.32 56.5742C289.143 57.4206 290.673 58.332 291.91 59.3086C293.212 60.2201 293.863 60.9688 293.863 61.5547C293.863 62.1406 293.57 63.2474 292.984 64.875C292.398 66.4375 291.65 68.0326 290.738 69.6602C289.892 71.2878 288.948 72.7526 287.906 74.0547C286.93 75.2917 286.018 75.9102 285.172 75.9102H284.977C283.805 75.5195 282.6 75.0638 281.363 74.543C280.191 73.957 278.987 73.4036 277.75 72.8828C276.513 72.2969 275.243 71.8411 273.941 71.5156C272.704 71.125 271.435 70.9297 270.133 70.9297C268.18 70.9297 266.357 71.3529 264.664 72.1992C262.971 72.9805 261.507 74.0221 260.27 75.3242C259.098 76.5612 258.154 77.9609 257.438 79.5234C256.721 81.0859 256.363 82.5833 256.363 84.0156V125.227C256.363 127.115 256.754 128.71 257.535 130.012C258.382 131.249 259.423 132.29 260.66 133.137C261.962 133.918 263.362 134.536 264.859 134.992C266.422 135.383 267.919 135.708 269.352 135.969C270.784 136.229 272.086 136.457 273.258 136.652C274.43 136.783 275.309 136.978 275.895 137.238C276.546 137.499 276.871 138.41 276.871 139.973C276.871 141.861 276.546 142.87 275.895 143H219.547C218.896 142.87 218.57 141.861 218.57 139.973C218.57 138.41 218.896 137.499 219.547 137.238C220.393 136.848 221.598 136.555 223.16 136.359C224.723 136.099 226.285 135.643 227.848 134.992C229.41 134.276 230.777 133.202 231.949 131.77C233.121 130.272 233.707 128.091 233.707 125.227V78.2539C233.707 76.6914 233.284 75.487 232.438 74.6406C231.591 73.7292 230.517 73.0456 229.215 72.5898C227.913 72.1341 226.513 71.776 225.016 71.5156C223.518 71.1901 222.086 70.832 220.719 70.4414C220.328 70.3112 220.003 70.1484 219.742 69.9531C219.547 69.6927 219.449 69.2044 219.449 68.4883C219.449 68.1628 219.547 67.8372 219.742 67.5117C219.938 67.1862 220.328 66.8607 220.914 66.5352L253.238 51.3008Z" stroke="white" stroke-width="2" mask="url(#path-1-outside-1_4_8)"/>
<path d="M341.52 141.047C339.371 142.544 336.832 143.716 333.902 144.562C330.973 145.409 328.043 145.832 325.113 145.832C317.171 145.832 311.116 144.042 306.949 140.461C302.848 136.88 300.797 132.03 300.797 125.91C300.797 122.395 301.578 119.367 303.141 116.828C304.768 114.289 307.145 112.043 310.27 110.09C313.395 108.137 317.236 106.379 321.793 104.816C326.415 103.189 331.754 101.594 337.809 100.031C341.064 99.1849 343.668 98.2734 345.621 97.2969C347.639 96.3203 349.495 95.3763 351.188 94.4648C352.294 93.8789 352.913 93.3581 353.043 92.9023C353.238 92.4466 353.336 92.0234 353.336 91.6328V74.6406C353.336 72.4922 353.01 70.5065 352.359 68.6836C351.773 66.7956 350.862 65.168 349.625 63.8008C348.388 62.4336 346.891 61.3594 345.133 60.5781C343.375 59.7969 341.389 59.4062 339.176 59.4062C337.288 59.4062 335.53 59.7318 333.902 60.3828C332.275 61.0339 330.875 61.9779 329.703 63.2148C328.531 64.4518 327.587 65.9167 326.871 67.6094C326.22 69.3021 325.895 71.2227 325.895 73.3711C325.895 73.5664 325.895 73.8594 325.895 74.25C325.96 74.6406 326.025 75.0638 326.09 75.5195C326.155 75.9102 326.22 76.2682 326.285 76.5938C326.35 76.9193 326.383 77.1146 326.383 77.1797C326.318 77.3099 325.764 77.5703 324.723 77.9609C323.746 78.3516 322.509 78.8073 321.012 79.3281C319.579 79.7839 317.984 80.2721 316.227 80.793C314.469 81.2487 312.776 81.7044 311.148 82.1602C309.586 82.6159 308.186 83.0391 306.949 83.4297C305.777 83.7552 304.964 83.9505 304.508 84.0156C303.792 84.0156 303.336 83.6576 303.141 82.9414C303.01 82.1602 302.945 81.4115 302.945 80.6953C302.945 76.9193 304.085 73.2409 306.363 69.6602C308.642 66.0794 311.669 62.9219 315.445 60.1875C319.286 57.388 323.681 55.1419 328.629 53.4492C333.577 51.7565 338.688 50.9102 343.961 50.9102C348.648 50.9102 352.848 51.5286 356.559 52.7656C360.27 53.9375 363.427 55.5977 366.031 57.7461C368.635 59.8294 370.621 62.2708 371.988 65.0703C373.355 67.8047 374.039 70.7344 374.039 73.8594V120.441C374.039 122.134 374.658 123.664 375.895 125.031C377.197 126.333 378.857 126.984 380.875 126.984C382.047 126.984 383.089 126.789 384 126.398C384.977 125.943 385.823 125.454 386.539 124.934C387.32 124.348 387.971 123.859 388.492 123.469C389.013 123.013 389.469 122.785 389.859 122.785C390.38 122.785 390.673 123.013 390.738 123.469C390.803 123.859 390.836 124.217 390.836 124.543C390.836 125.65 390.673 126.789 390.348 127.961C390.087 129.068 389.599 129.882 388.883 130.402C385.693 132.811 382.861 134.992 380.387 136.945C377.913 138.833 375.667 140.461 373.648 141.828C371.63 143.195 369.807 144.237 368.18 144.953C366.552 145.669 365.022 146.027 363.59 146.027C362.288 146.027 361.116 145.669 360.074 144.953C359.098 144.237 358.219 143.358 357.438 142.316C356.721 141.275 356.103 140.168 355.582 138.996C355.061 137.759 354.605 136.62 354.215 135.578C353.889 134.536 353.629 133.69 353.434 133.039C353.238 132.388 353.076 132.095 352.945 132.16L341.52 141.047ZM323.551 123.566C323.551 125.324 323.876 126.757 324.527 127.863C325.243 128.97 326.155 129.816 327.262 130.402C328.368 130.988 329.605 131.411 330.973 131.672C332.405 131.867 333.87 131.965 335.367 131.965C336.734 131.965 338.427 131.639 340.445 130.988C342.464 130.272 344.417 129.361 346.305 128.254C348.258 127.082 349.918 125.78 351.285 124.348C352.652 122.85 353.336 121.353 353.336 119.855V103.742C353.336 103.026 353.076 102.668 352.555 102.668C352.424 102.668 352.294 102.701 352.164 102.766L329.508 113.312C328.596 113.964 327.75 114.582 326.969 115.168C326.253 115.689 325.634 116.34 325.113 117.121C324.592 117.837 324.202 118.716 323.941 119.758C323.681 120.734 323.551 122.004 323.551 123.566Z" stroke="white" stroke-width="2" mask="url(#path-1-outside-1_4_8)"/>
<path d="M425.699 203.547C424.527 203.547 423.388 203.352 422.281 202.961C421.174 202.57 420.165 202.017 419.254 201.301C418.342 200.585 417.594 199.738 417.008 198.762C416.487 197.85 416.227 196.809 416.227 195.637C416.227 193.814 416.682 192.414 417.594 191.438C418.57 190.461 419.742 189.647 421.109 188.996C422.477 188.345 423.909 187.792 425.406 187.336C426.904 186.88 428.173 186.262 429.215 185.48C429.931 184.96 430.68 184.341 431.461 183.625C432.307 182.974 433.056 181.9 433.707 180.402L446.5 150.617L409.098 72.5898C407.991 69.5951 406.396 66.9909 404.312 64.7773C402.229 62.4987 399.69 60.8711 396.695 59.8945C396.24 59.7643 395.686 59.6341 395.035 59.5039C394.384 59.3086 393.766 59.0807 393.18 58.8203C392.529 58.5599 392.008 58.2344 391.617 57.8438C391.161 57.388 390.934 56.8021 390.934 56.0859C390.934 55.4349 391.129 54.7839 391.52 54.1328C391.91 53.4818 392.496 53.1562 393.277 53.1562H444.84C445.23 53.1562 445.458 53.5469 445.523 54.3281C445.589 55.1094 445.621 55.5977 445.621 55.793C445.621 56.7044 445.23 57.3555 444.449 57.7461C443.733 58.0716 442.822 58.2995 441.715 58.4297C440.608 58.5599 439.404 58.6576 438.102 58.7227C436.865 58.7878 435.693 59.0156 434.586 59.4062C433.479 59.7969 432.535 60.4154 431.754 61.2617C431.038 62.1081 430.68 63.3776 430.68 65.0703C430.68 65.2656 430.81 65.6888 431.07 66.3398C431.396 66.9258 431.559 67.2839 431.559 67.4141L455.777 119.27C455.908 119.595 456.135 120.083 456.461 120.734C456.852 121.32 457.275 121.613 457.73 121.613C457.991 121.613 458.251 121.483 458.512 121.223C458.772 120.897 459 120.539 459.195 120.148C459.391 119.758 459.553 119.4 459.684 119.074C459.814 118.684 459.911 118.423 459.977 118.293C462.971 110.611 465.478 104.1 467.496 98.7617C469.579 93.4232 471.272 88.9961 472.574 85.4805C473.941 81.9648 474.951 79.2305 475.602 77.2773C476.318 75.2591 476.806 73.7292 477.066 72.6875C477.392 71.5807 477.587 70.7995 477.652 70.3438C477.717 69.8229 477.75 69.3346 477.75 68.8789C477.88 66.6003 477.197 64.7122 475.699 63.2148C474.202 61.7174 472.411 60.6107 470.328 59.8945C469.742 59.6992 468.993 59.569 468.082 59.5039C467.236 59.3737 466.389 59.2109 465.543 59.0156C464.762 58.7552 464.046 58.3971 463.395 57.9414C462.809 57.4206 462.516 56.7044 462.516 55.793C462.516 55.2721 462.743 54.7188 463.199 54.1328C463.655 53.4818 464.143 53.1562 464.664 53.1562H503.629C504.15 53.1562 504.443 53.5469 504.508 54.3281C504.638 55.0443 504.703 55.5651 504.703 55.8906C504.703 56.3464 504.638 56.737 504.508 57.0625C504.378 57.388 504.052 57.681 503.531 57.9414C503.076 58.2018 502.392 58.4622 501.48 58.7227C500.634 58.9831 499.495 59.2435 498.062 59.5039C496.695 59.7643 495.458 60.4479 494.352 61.5547C493.245 62.5964 492.236 63.8333 491.324 65.2656C490.478 66.6328 489.697 68.0977 488.98 69.6602C488.329 71.2227 487.743 72.6224 487.223 73.8594L437.711 196.516C437.19 197.753 436.441 198.794 435.465 199.641C434.488 200.552 433.414 201.301 432.242 201.887C431.07 202.473 429.898 202.896 428.727 203.156C427.555 203.417 426.546 203.547 425.699 203.547Z" stroke="white" stroke-width="2" mask="url(#path-1-outside-1_4_8)"/>
<path d="M548.746 141.047C546.598 142.544 544.059 143.716 541.129 144.562C538.199 145.409 535.27 145.832 532.34 145.832C524.397 145.832 518.342 144.042 514.176 140.461C510.074 136.88 508.023 132.03 508.023 125.91C508.023 122.395 508.805 119.367 510.367 116.828C511.995 114.289 514.371 112.043 517.496 110.09C520.621 108.137 524.462 106.379 529.02 104.816C533.642 103.189 538.98 101.594 545.035 100.031C548.29 99.1849 550.895 98.2734 552.848 97.2969C554.866 96.3203 556.721 95.3763 558.414 94.4648C559.521 93.8789 560.139 93.3581 560.27 92.9023C560.465 92.4466 560.562 92.0234 560.562 91.6328V74.6406C560.562 72.4922 560.237 70.5065 559.586 68.6836C559 66.7956 558.089 65.168 556.852 63.8008C555.615 62.4336 554.117 61.3594 552.359 60.5781C550.602 59.7969 548.616 59.4062 546.402 59.4062C544.514 59.4062 542.757 59.7318 541.129 60.3828C539.501 61.0339 538.102 61.9779 536.93 63.2148C535.758 64.4518 534.814 65.9167 534.098 67.6094C533.447 69.3021 533.121 71.2227 533.121 73.3711C533.121 73.5664 533.121 73.8594 533.121 74.25C533.186 74.6406 533.251 75.0638 533.316 75.5195C533.382 75.9102 533.447 76.2682 533.512 76.5938C533.577 76.9193 533.609 77.1146 533.609 77.1797C533.544 77.3099 532.991 77.5703 531.949 77.9609C530.973 78.3516 529.736 78.8073 528.238 79.3281C526.806 79.7839 525.211 80.2721 523.453 80.793C521.695 81.2487 520.003 81.7044 518.375 82.1602C516.812 82.6159 515.413 83.0391 514.176 83.4297C513.004 83.7552 512.19 83.9505 511.734 84.0156C511.018 84.0156 510.562 83.6576 510.367 82.9414C510.237 82.1602 510.172 81.4115 510.172 80.6953C510.172 76.9193 511.311 73.2409 513.59 69.6602C515.868 66.0794 518.896 62.9219 522.672 60.1875C526.513 57.388 530.908 55.1419 535.855 53.4492C540.803 51.7565 545.914 50.9102 551.188 50.9102C555.875 50.9102 560.074 51.5286 563.785 52.7656C567.496 53.9375 570.654 55.5977 573.258 57.7461C575.862 59.8294 577.848 62.2708 579.215 65.0703C580.582 67.8047 581.266 70.7344 581.266 73.8594V120.441C581.266 122.134 581.884 123.664 583.121 125.031C584.423 126.333 586.083 126.984 588.102 126.984C589.273 126.984 590.315 126.789 591.227 126.398C592.203 125.943 593.049 125.454 593.766 124.934C594.547 124.348 595.198 123.859 595.719 123.469C596.24 123.013 596.695 122.785 597.086 122.785C597.607 122.785 597.9 123.013 597.965 123.469C598.03 123.859 598.062 124.217 598.062 124.543C598.062 125.65 597.9 126.789 597.574 127.961C597.314 129.068 596.826 129.882 596.109 130.402C592.919 132.811 590.087 134.992 587.613 136.945C585.139 138.833 582.893 140.461 580.875 141.828C578.857 143.195 577.034 144.237 575.406 144.953C573.779 145.669 572.249 146.027 570.816 146.027C569.514 146.027 568.342 145.669 567.301 144.953C566.324 144.237 565.445 143.358 564.664 142.316C563.948 141.275 563.329 140.168 562.809 138.996C562.288 137.759 561.832 136.62 561.441 135.578C561.116 134.536 560.855 133.69 560.66 133.039C560.465 132.388 560.302 132.095 560.172 132.16L548.746 141.047ZM530.777 123.566C530.777 125.324 531.103 126.757 531.754 127.863C532.47 128.97 533.382 129.816 534.488 130.402C535.595 130.988 536.832 131.411 538.199 131.672C539.632 131.867 541.096 131.965 542.594 131.965C543.961 131.965 545.654 131.639 547.672 130.988C549.69 130.272 551.643 129.361 553.531 128.254C555.484 127.082 557.145 125.78 558.512 124.348C559.879 122.85 560.562 121.353 560.562 119.855V103.742C560.562 103.026 560.302 102.668 559.781 102.668C559.651 102.668 559.521 102.701 559.391 102.766L536.734 113.312C535.823 113.964 534.977 114.582 534.195 115.168C533.479 115.689 532.861 116.34 532.34 117.121C531.819 117.837 531.428 118.716 531.168 119.758C530.908 120.734 530.777 122.004 530.777 123.566Z" stroke="white" stroke-width="2" mask="url(#path-1-outside-1_4_8)"/>
</svg>
